<svg width="31" height="26" viewBox="0 0 31 26" fill="none" xmlns="http://www.w3.org/2000/svg">
<path d="M15.647 0C7.32764 0 0.646973 6.79146 0.646973 15.2487C0.646973 19.2211 2.15958 22.809 4.68059 25.5C5.05874 19.6055 9.84865 15.1206 15.647 15.1206C21.4453 15.1206 26.2352 19.6055 26.6134 25.5C29.1344 22.809 30.647 19.2211 30.647 15.2487C30.647 6.79146 23.8403 0 15.647 0ZM15.647 13.3266C13.126 13.3266 11.1092 11.2764 11.1092 8.71357C11.1092 6.15075 13.126 4.1005 15.647 4.1005C18.168 4.1005 20.1848 6.15075 20.1848 8.71357C20.1848 11.2764 18.168 13.3266 15.647 13.3266Z" fill="white"/>
</svg>
