<svg width="20" height="17" viewBox="0 0 20 17" fill="none" xmlns="http://www.w3.org/2000/svg">
<path d="M10 0C4.45378 0 0 4.52764 0 10.1658C0 12.8141 1.0084 15.206 2.68908 17C2.94118 13.0704 6.13445 10.0804 10 10.0804C13.8655 10.0804 17.0588 13.0704 17.3109 17C18.9916 15.206 20 12.8141 20 10.1658C20 4.52764 15.4622 0 10 0ZM10 8.88442C8.31933 8.88442 6.97479 7.51759 6.97479 5.80905C6.97479 4.1005 8.31933 2.73367 10 2.73367C11.6807 2.73367 13.0252 4.1005 13.0252 5.80905C13.0252 7.51759 11.6807 8.88442 10 8.88442Z" fill="#B4B4B4"/>
</svg>
