<svg width="21" height="23" viewBox="0 0 21 23" fill="none" xmlns="http://www.w3.org/2000/svg">
<g clip-path="url(#clip0)">
<path d="M15.8852 13.238C15.783 13.5045 15.6633 13.7643 15.525 14.0151C15.5501 13.9707 15.5727 13.9274 15.5977 13.8831C15.3263 14.3765 14.9923 14.8298 14.6023 15.2358C14.6358 15.2007 14.6693 15.1656 14.7028 15.1304C14.4833 15.358 14.2463 15.5688 13.9948 15.7601C13.8674 15.8571 13.738 15.9493 13.6046 16.0361C13.5778 16.0538 13.5492 16.0708 13.5224 16.0885C13.5059 16.1001 13.4796 16.122 13.4598 16.1264C13.4574 16.1275 13.5916 16.0491 13.52 16.0895C13.4502 16.1307 13.3803 16.1719 13.3077 16.2099C13.0367 16.3578 12.7548 16.4874 12.4638 16.5936C12.3917 16.6199 12.3178 16.6455 12.2445 16.6694C12.2104 16.6802 12.1755 16.6928 12.1395 16.703C12.124 16.707 12.1078 16.7128 12.0922 16.7168C12.2722 16.66 12.1665 16.6954 12.124 16.707C11.9754 16.75 11.8236 16.7856 11.6713 16.8172C11.3215 16.8888 10.9647 16.9318 10.6075 16.9446C10.656 16.9432 10.7046 16.9419 10.7531 16.9405C10.1898 16.9582 9.62851 16.9028 9.07931 16.774C9.12911 16.7851 9.17649 16.7973 9.22628 16.8084C8.66902 16.6746 8.13326 16.469 7.62947 16.1958C7.67391 16.2209 7.71728 16.2435 7.76173 16.2686C7.26733 15.997 6.81295 15.6628 6.40599 15.2729C6.44119 15.3063 6.47639 15.3398 6.51159 15.3733C6.28346 15.1539 6.07207 14.9169 5.88024 14.6655C5.78292 14.5382 5.69042 14.4088 5.60342 14.2755C5.58567 14.2487 5.56859 14.2202 5.55084 14.1934C5.53914 14.1769 5.51724 14.1505 5.51278 14.1309C5.5117 14.1284 5.59039 14.2625 5.54976 14.191C5.50847 14.1212 5.46718 14.0514 5.42897 13.9788C5.28059 13.7081 5.15044 13.4263 5.04375 13.1356C5.01735 13.0635 4.99161 12.9897 4.96762 12.9165C4.95671 12.8824 4.94404 12.8475 4.93379 12.8116C4.92975 12.7961 4.92395 12.7799 4.9199 12.7643C4.97706 12.9441 4.94148 12.8386 4.92975 12.7961C4.88659 12.6477 4.85068 12.496 4.81893 12.3439C4.74677 11.9945 4.70332 11.6381 4.69005 11.2813C4.69146 11.3298 4.69287 11.3783 4.69429 11.4268C4.67588 10.8642 4.73074 10.3037 4.859 9.75543C4.84794 9.80514 4.8358 9.85244 4.82474 9.90215C4.95809 9.34581 5.16325 8.81102 5.43621 8.30823C5.41118 8.35258 5.38857 8.39587 5.36355 8.44022C5.63491 7.94682 5.96899 7.49345 6.35896 7.08751C6.32547 7.12262 6.29198 7.15773 6.25849 7.19285C6.47792 6.96528 6.71495 6.75446 6.9665 6.5632C7.09381 6.46616 7.22328 6.37394 7.35665 6.28722C7.38346 6.26953 7.41201 6.2525 7.43882 6.23481C7.4553 6.22315 7.4817 6.2013 7.50142 6.19688C7.50383 6.1958 7.36964 6.27422 7.44123 6.23374C7.51107 6.19259 7.58091 6.15143 7.65357 6.11336C7.92451 5.96551 8.20647 5.83587 8.49745 5.72968C8.56959 5.7034 8.64348 5.67779 8.7167 5.65392C8.7509 5.64306 8.78576 5.63045 8.82171 5.62026C8.83726 5.61624 8.85349 5.61047 8.86905 5.60645C8.68908 5.6633 8.79475 5.6279 8.83726 5.61624C8.98586 5.57332 9.13768 5.53764 9.28991 5.50612C9.63971 5.43448 9.99653 5.39151 10.3538 5.37869C10.3052 5.38004 10.2567 5.3814 10.2081 5.38275C10.7714 5.36505 11.3327 5.42051 11.8819 5.54926C11.8321 5.53816 11.7848 5.52598 11.735 5.51487C12.2922 5.64871 12.828 5.85424 13.3318 6.12744C13.2873 6.1024 13.244 6.07977 13.1995 6.05472C13.6939 6.32632 14.1483 6.6605 14.5553 7.05043C14.5201 7.01694 14.4849 6.98345 14.4497 6.94997C14.6778 7.16938 14.8892 7.40635 15.081 7.65779C15.1783 7.78505 15.2708 7.91446 15.3578 8.04775C15.3756 8.07454 15.3927 8.10308 15.4104 8.12987C15.4221 8.14635 15.444 8.17274 15.4485 8.19243C15.4495 8.19485 15.3709 8.06075 15.4115 8.13228C15.4528 8.20208 15.4941 8.27188 15.5323 8.34449C15.6807 8.61523 15.8108 8.89697 15.9175 9.1877C15.9439 9.25978 15.9696 9.3336 15.9936 9.40675C16.0045 9.44091 16.0172 9.47574 16.0275 9.51165C16.0315 9.52719 16.0373 9.5434 16.0413 9.55894C15.9842 9.37915 16.0198 9.48472 16.0315 9.52719C16.0747 9.67564 16.1106 9.8273 16.1423 9.97936C16.2145 10.3288 16.2579 10.6852 16.2712 11.042C16.2698 10.9935 16.2684 10.945 16.267 10.8965C16.2854 11.4591 16.2305 12.0196 16.1022 12.5679C16.1133 12.5181 16.1255 12.4708 16.1365 12.4211C16.0723 12.6982 15.9875 12.9715 15.8852 13.238C15.7803 13.5115 15.9209 13.8652 16.2083 13.9614C16.4957 14.0577 16.82 13.9323 16.9323 13.6397C17.4327 12.3249 17.5348 10.8533 17.1779 9.48737C16.8181 8.10834 16.0641 6.87988 14.9869 5.94105C13.9085 4.9998 12.5068 4.41612 11.0838 4.28986C9.71674 4.16909 8.30239 4.46382 7.10783 5.14063C5.84651 5.85577 4.84478 6.92229 4.22149 8.23391C3.61573 9.51029 3.42416 10.9855 3.67588 12.375C3.91962 13.7175 4.56819 15.0015 5.53038 15.9741C6.06166 16.5096 6.65182 16.9439 7.32022 17.2942C7.96203 17.6303 8.65908 17.8538 9.37369 17.9741C10.7365 18.2051 12.1795 17.9973 13.4271 17.4068C14.6764 16.8169 15.7584 15.8491 16.4437 14.6472C16.6283 14.3224 16.7969 13.9874 16.9306 13.639C17.0355 13.3655 16.8949 13.0118 16.6075 12.9156C16.3194 12.821 15.9975 12.9453 15.8852 13.238Z" fill="#EC008C"/>
<path d="M15.8852 13.238C15.783 13.5045 15.6633 13.7643 15.525 14.0151C15.5501 13.9707 15.5727 13.9274 15.5977 13.8831C15.3263 14.3765 14.9923 14.8298 14.6023 15.2358C14.6358 15.2007 14.6693 15.1656 14.7028 15.1304C14.4833 15.358 14.2463 15.5688 13.9948 15.7601C13.8674 15.8571 13.738 15.9493 13.6046 16.0361C13.5778 16.0538 13.5492 16.0708 13.5224 16.0885C13.5059 16.1001 13.4796 16.122 13.4598 16.1264C13.4574 16.1275 13.5916 16.0491 13.52 16.0895C13.4502 16.1307 13.3803 16.1719 13.3077 16.2099C13.0367 16.3578 12.7548 16.4874 12.4638 16.5936C12.3917 16.6199 12.3178 16.6455 12.2445 16.6694C12.2104 16.6802 12.1755 16.6928 12.1395 16.703C12.124 16.707 12.1078 16.7128 12.0922 16.7168C12.2722 16.66 12.1665 16.6954 12.124 16.707C11.9754 16.75 11.8236 16.7856 11.6713 16.8172C11.3215 16.8888 10.9647 16.9318 10.6075 16.9446C10.656 16.9432 10.7046 16.9419 10.7531 16.9405C10.1898 16.9582 9.62851 16.9028 9.07931 16.774C9.12911 16.7851 9.17649 16.7973 9.22628 16.8084C8.66902 16.6746 8.13326 16.469 7.62947 16.1958C7.67391 16.2209 7.71728 16.2435 7.76173 16.2686C7.26733 15.997 6.81295 15.6628 6.40599 15.2729C6.44119 15.3063 6.47639 15.3398 6.51159 15.3733C6.28346 15.1539 6.07207 14.9169 5.88024 14.6655C5.78292 14.5382 5.69042 14.4088 5.60342 14.2755C5.58567 14.2487 5.56859 14.2202 5.55084 14.1934C5.53914 14.1769 5.51724 14.1505 5.51278 14.1309C5.5117 14.1284 5.59039 14.2625 5.54976 14.191C5.50847 14.1212 5.46718 14.0514 5.42897 13.9788C5.28059 13.7081 5.15044 13.4263 5.04375 13.1356C5.01735 13.0635 4.99161 12.9897 4.96762 12.9165C4.95671 12.8824 4.94404 12.8475 4.93379 12.8116C4.92975 12.7961 4.92395 12.7799 4.9199 12.7643C4.97706 12.9441 4.94148 12.8386 4.92975 12.7961C4.88659 12.6477 4.85068 12.496 4.81893 12.3439C4.74677 11.9945 4.70332 11.6381 4.69005 11.2813C4.69146 11.3298 4.69287 11.3783 4.69429 11.4268C4.67588 10.8642 4.73074 10.3037 4.859 9.75543C4.84794 9.80514 4.8358 9.85244 4.82474 9.90215C4.95809 9.34581 5.16325 8.81102 5.43621 8.30823C5.41118 8.35258 5.38857 8.39587 5.36355 8.44022C5.63491 7.94682 5.96899 7.49345 6.35896 7.08751C6.32547 7.12262 6.29198 7.15773 6.25849 7.19285C6.47792 6.96528 6.71495 6.75446 6.9665 6.5632C7.09381 6.46616 7.22328 6.37394 7.35665 6.28722C7.38346 6.26953 7.41201 6.2525 7.43882 6.23481C7.4553 6.22315 7.4817 6.2013 7.50142 6.19688C7.50383 6.1958 7.36964 6.27422 7.44123 6.23374C7.51107 6.19259 7.58091 6.15143 7.65357 6.11336C7.92451 5.96551 8.20647 5.83587 8.49745 5.72968C8.56959 5.7034 8.64348 5.67779 8.7167 5.65392C8.7509 5.64306 8.78576 5.63045 8.82171 5.62026C8.83726 5.61624 8.85349 5.61047 8.86905 5.60645C8.68908 5.6633 8.79475 5.6279 8.83726 5.61624C8.98586 5.57332 9.13768 5.53764 9.28991 5.50612C9.63971 5.43448 9.99653 5.39151 10.3538 5.37869C10.3052 5.38004 10.2567 5.3814 10.2081 5.38275C10.7714 5.36505 11.3327 5.42051 11.8819 5.54926C11.8321 5.53816 11.7848 5.52598 11.735 5.51487C12.2922 5.64871 12.828 5.85424 13.3318 6.12744C13.2873 6.1024 13.244 6.07977 13.1995 6.05472C13.6939 6.32632 14.1483 6.6605 14.5553 7.05043C14.5201 7.01694 14.4849 6.98345 14.4497 6.94997C14.6778 7.16938 14.8892 7.40635 15.081 7.65779C15.1783 7.78505 15.2708 7.91446 15.3578 8.04775C15.3756 8.07454 15.3927 8.10308 15.4104 8.12987C15.4221 8.14635 15.444 8.17274 15.4485 8.19243C15.4495 8.19485 15.3709 8.06075 15.4115 8.13228C15.4528 8.20208 15.4941 8.27188 15.5323 8.34449C15.6807 8.61523 15.8108 8.89697 15.9175 9.1877C15.9439 9.25978 15.9696 9.3336 15.9936 9.40675C16.0045 9.44091 16.0172 9.47574 16.0275 9.51165C16.0315 9.52719 16.0373 9.5434 16.0413 9.55894C15.9842 9.37915 16.0198 9.48472 16.0315 9.52719C16.0747 9.67564 16.1106 9.8273 16.1423 9.97936C16.2145 10.3288 16.2579 10.6852 16.2712 11.042C16.2698 10.9935 16.2684 10.945 16.267 10.8965C16.2854 11.4591 16.2305 12.0196 16.1022 12.5679C16.1133 12.5181 16.1255 12.4708 16.1365 12.4211C16.0723 12.6982 15.9875 12.9715 15.8852 13.238C15.7803 13.5115 15.9209 13.8652 16.2083 13.9614C16.4957 14.0577 16.82 13.9323 16.9323 13.6397C17.4327 12.3249 17.5348 10.8533 17.1779 9.48737C16.8181 8.10834 16.0641 6.87988 14.9869 5.94105C13.9085 4.9998 12.5068 4.41612 11.0838 4.28986C9.71674 4.16909 8.30239 4.46382 7.10783 5.14063C5.84651 5.85577 4.84478 6.92229 4.22149 8.23391C3.61573 9.51029 3.42416 10.9855 3.67588 12.375C3.91962 13.7175 4.56819 15.0015 5.53038 15.9741C6.06166 16.5096 6.65182 16.9439 7.32022 17.2942C7.96203 17.6303 8.65908 17.8538 9.37369 17.9741C10.7365 18.2051 12.1795 17.9973 13.4271 17.4068C14.6764 16.8169 15.7584 15.8491 16.4437 14.6472C16.6283 14.3224 16.7969 13.9874 16.9306 13.639C17.0355 13.3655 16.8949 13.0118 16.6075 12.9156C16.3194 12.821 15.9975 12.9453 15.8852 13.238Z" fill="black" fill-opacity="0.05"/>
<path d="M7.20483 10.5073C7.57306 10.6485 7.94303 10.7905 8.31125 10.9317C8.89937 11.1574 9.48748 11.383 10.0756 11.6086C10.21 11.6601 10.3461 11.7124 10.4805 11.7639C10.7632 11.8724 11.0956 11.7261 11.2045 11.4422C11.3682 11.0154 11.5313 10.5903 11.695 10.1635C11.9543 9.48763 12.2136 8.81174 12.4722 8.13759C12.5317 7.98255 12.5918 7.82577 12.6513 7.67073C12.7562 7.39724 12.6156 7.04355 12.3282 6.94729C12.0391 6.85036 11.7165 6.97639 11.6042 7.26904C11.4405 7.69583 11.2774 8.12088 11.1137 8.54767C10.8544 9.22356 10.5951 9.89945 10.3365 10.5736C10.277 10.7286 10.2169 10.8854 10.1574 11.0405C10.3987 10.9332 10.6401 10.826 10.8814 10.7187C10.5132 10.5774 10.1432 10.4355 9.77501 10.2943C9.1869 10.0686 8.59878 9.84302 8.01067 9.61741C7.87629 9.56586 7.74017 9.51364 7.60579 9.46209C7.33181 9.35698 6.97781 9.49695 6.88177 9.78384C6.78506 10.0725 6.9099 10.3941 7.20483 10.5073Z" fill="#EC008C"/>
<path d="M7.20483 10.5073C7.57306 10.6485 7.94303 10.7905 8.31125 10.9317C8.89937 11.1574 9.48748 11.383 10.0756 11.6086C10.21 11.6601 10.3461 11.7124 10.4805 11.7639C10.7632 11.8724 11.0956 11.7261 11.2045 11.4422C11.3682 11.0154 11.5313 10.5903 11.695 10.1635C11.9543 9.48763 12.2136 8.81174 12.4722 8.13759C12.5317 7.98255 12.5918 7.82577 12.6513 7.67073C12.7562 7.39724 12.6156 7.04355 12.3282 6.94729C12.0391 6.85036 11.7165 6.97639 11.6042 7.26904C11.4405 7.69583 11.2774 8.12088 11.1137 8.54767C10.8544 9.22356 10.5951 9.89945 10.3365 10.5736C10.277 10.7286 10.2169 10.8854 10.1574 11.0405C10.3987 10.9332 10.6401 10.826 10.8814 10.7187C10.5132 10.5774 10.1432 10.4355 9.77501 10.2943C9.1869 10.0686 8.59878 9.84302 8.01067 9.61741C7.87629 9.56586 7.74017 9.51364 7.60579 9.46209C7.33181 9.35698 6.97781 9.49695 6.88177 9.78384C6.78506 10.0725 6.9099 10.3941 7.20483 10.5073Z" fill="black" fill-opacity="0.05"/>
<path d="M13.0739 20.7222C12.9867 20.339 12.8988 19.9576 12.8098 19.5737C12.6699 18.9625 12.5294 18.3531 12.3895 17.7418C12.3572 17.6016 12.3239 17.4589 12.2916 17.3186C12.2266 17.0339 11.9569 16.7925 11.6482 16.856C11.3652 16.9153 11.1164 17.1935 11.1858 17.4979C11.273 17.8811 11.3609 18.2625 11.4499 18.6464C11.5898 19.2576 11.7303 19.867 11.8702 20.4782C11.9025 20.6185 11.9359 20.7612 11.9681 20.9015C12.0331 21.1862 12.3028 21.4276 12.6115 21.3641C12.8938 21.3066 13.1427 21.0283 13.0739 20.7222Z" fill="#EC008C"/>
<path d="M13.0739 20.7222C12.9867 20.339 12.8988 19.9576 12.8098 19.5737C12.6699 18.9625 12.5294 18.3531 12.3895 17.7418C12.3572 17.6016 12.3239 17.4589 12.2916 17.3186C12.2266 17.0339 11.9569 16.7925 11.6482 16.856C11.3652 16.9153 11.1164 17.1935 11.1858 17.4979C11.273 17.8811 11.3609 18.2625 11.4499 18.6464C11.5898 19.2576 11.7303 19.867 11.8702 20.4782C11.9025 20.6185 11.9359 20.7612 11.9681 20.9015C12.0331 21.1862 12.3028 21.4276 12.6115 21.3641C12.8938 21.3066 13.1427 21.0283 13.0739 20.7222Z" fill="black" fill-opacity="0.05"/>
<path d="M2.861 17.4099C3.19435 17.1881 3.52703 16.968 3.85863 16.7455C4.38887 16.3914 4.92019 16.0396 5.45043 15.6855C5.57348 15.6048 5.69545 15.5217 5.81849 15.441C5.93363 15.3653 6.01293 15.1899 6.02522 15.0587C6.03884 14.924 5.99472 14.7572 5.90401 14.6545C5.69005 14.4086 5.37716 14.3944 5.11632 14.5681C4.78298 14.79 4.4503 15.0101 4.1187 15.2326C3.58846 15.5867 3.05714 15.9384 2.5269 16.2925C2.40385 16.3732 2.28188 16.4563 2.15883 16.537C2.0437 16.6128 1.96439 16.7882 1.95211 16.9193C1.93849 17.054 1.9826 17.2208 2.07332 17.3236C2.28794 17.5678 2.60017 17.5836 2.861 17.4099Z" fill="#EC008C"/>
<path d="M2.861 17.4099C3.19435 17.1881 3.52703 16.968 3.85863 16.7455C4.38887 16.3914 4.92019 16.0396 5.45043 15.6855C5.57348 15.6048 5.69545 15.5217 5.81849 15.441C5.93363 15.3653 6.01293 15.1899 6.02522 15.0587C6.03884 14.924 5.99472 14.7572 5.90401 14.6545C5.69005 14.4086 5.37716 14.3944 5.11632 14.5681C4.78298 14.79 4.4503 15.0101 4.1187 15.2326C3.58846 15.5867 3.05714 15.9384 2.5269 16.2925C2.40385 16.3732 2.28188 16.4563 2.15883 16.537C2.0437 16.6128 1.96439 16.7882 1.95211 16.9193C1.93849 17.054 1.9826 17.2208 2.07332 17.3236C2.28794 17.5678 2.60017 17.5836 2.861 17.4099Z" fill="black" fill-opacity="0.05"/>
<path d="M10.5763 2.48162C9.34396 2.36456 8.09327 2.55621 6.95815 3.05199C6.24403 3.36356 5.56215 3.78941 4.98131 4.31197C4.84638 4.43406 4.71228 4.56447 4.59146 4.70197C4.49997 4.80476 4.46738 4.99409 4.48944 5.12445C4.51083 5.25656 4.59639 5.40928 4.7096 5.48469C4.98021 5.66644 5.28709 5.60231 5.4939 5.36591C5.51131 5.34661 5.52872 5.32731 5.54547 5.30975C5.51198 5.34487 5.47849 5.37998 5.445 5.41509C5.72458 5.12467 6.04526 4.86801 6.3782 4.64202C6.4428 4.59886 6.50741 4.5557 6.57134 4.51428C6.60298 4.49444 6.63461 4.4746 6.66625 4.45477C6.73434 4.41295 6.53073 4.53667 6.61156 4.48774C6.6322 4.47568 6.65284 4.46361 6.67349 4.45155C6.8259 4.36214 6.98396 4.27889 7.14418 4.20047C7.31887 4.11561 7.4968 4.03799 7.67554 3.96867C7.77181 3.93167 7.86742 3.8964 7.96411 3.86355C8.01453 3.84693 8.06429 3.83204 8.11471 3.81541C8.20831 3.78538 8.02901 3.84049 8.06495 3.8303C8.09432 3.82158 8.12369 3.81287 8.15306 3.80415C8.66215 3.66172 9.18676 3.58321 9.71467 3.56391C9.66611 3.56526 9.61754 3.56662 9.56898 3.56797C9.86694 3.55838 10.1652 3.56889 10.4627 3.59708C10.7543 3.62501 11.0601 3.39662 11.0758 3.09488C11.0963 2.79099 10.8891 2.51168 10.5763 2.48162Z" fill="#EC008C"/>
<path d="M10.5763 2.48162C9.34396 2.36456 8.09327 2.55621 6.95815 3.05199C6.24403 3.36356 5.56215 3.78941 4.98131 4.31197C4.84638 4.43406 4.71228 4.56447 4.59146 4.70197C4.49997 4.80476 4.46738 4.99409 4.48944 5.12445C4.51083 5.25656 4.59639 5.40928 4.7096 5.48469C4.98021 5.66644 5.28709 5.60231 5.4939 5.36591C5.51131 5.34661 5.52872 5.32731 5.54547 5.30975C5.51198 5.34487 5.47849 5.37998 5.445 5.41509C5.72458 5.12467 6.04526 4.86801 6.3782 4.64202C6.4428 4.59886 6.50741 4.5557 6.57134 4.51428C6.60298 4.49444 6.63461 4.4746 6.66625 4.45477C6.73434 4.41295 6.53073 4.53667 6.61156 4.48774C6.6322 4.47568 6.65284 4.46361 6.67349 4.45155C6.8259 4.36214 6.98396 4.27889 7.14418 4.20047C7.31887 4.11561 7.4968 4.03799 7.67554 3.96867C7.77181 3.93167 7.86742 3.8964 7.96411 3.86355C8.01453 3.84693 8.06429 3.83204 8.11471 3.81541C8.20831 3.78538 8.02901 3.84049 8.06495 3.8303C8.09432 3.82158 8.12369 3.81287 8.15306 3.80415C8.66215 3.66172 9.18676 3.58321 9.71467 3.56391C9.66611 3.56526 9.61754 3.56662 9.56898 3.56797C9.86694 3.55838 10.1652 3.56889 10.4627 3.59708C10.7543 3.62501 11.0601 3.39662 11.0758 3.09488C11.0963 2.79099 10.8891 2.51168 10.5763 2.48162Z" fill="black" fill-opacity="0.05"/>
<path d="M15.6572 5.58635C15.8972 5.76436 16.126 5.95603 16.3411 6.16245C16.3059 6.12896 16.2707 6.09547 16.2355 6.06199C16.5748 6.38802 16.879 6.7485 17.1398 7.13833C17.1704 7.18402 17.2009 7.2297 17.2297 7.27471C17.2446 7.29842 17.2585 7.31972 17.2734 7.34343C17.3303 7.4352 17.2111 7.23961 17.2524 7.30941C17.3058 7.39983 17.3574 7.48959 17.406 7.58216C17.5023 7.759 17.589 7.94013 17.6678 8.12621C17.7397 8.29368 17.805 8.46262 17.8631 8.63477C17.8768 8.67202 17.8881 8.71034 17.8994 8.74865C17.9057 8.76902 17.9119 8.78938 17.9187 8.80801C17.9213 8.81698 17.9238 8.82596 17.9271 8.83319C17.9526 8.91291 17.8884 8.70444 17.9027 8.75589C17.9253 8.83252 17.9462 8.90849 17.9665 8.98619C18.0338 9.24383 18.0856 9.5055 18.1225 9.76944C18.1473 9.94482 18.1644 10.1193 18.1709 10.2956C18.1694 10.2471 18.168 10.1986 18.1666 10.1501C18.1667 10.1761 18.1691 10.201 18.1674 10.2263C18.1661 10.3757 18.1921 10.5116 18.2886 10.6305C18.3749 10.7396 18.53 10.831 18.6717 10.8374C18.9544 10.852 19.2804 10.6493 19.2848 10.3352C19.2907 9.89187 19.224 9.44464 19.1253 9.0131C18.8978 8.01455 18.4791 7.07059 17.8768 6.24003C17.4446 5.64458 16.9093 5.11949 16.3188 4.6811C16.0833 4.50685 15.7029 4.54875 15.5345 4.79988C15.3689 5.0541 15.4052 5.39776 15.6572 5.58635Z" fill="#EC008C"/>
<path d="M15.6572 5.58635C15.8972 5.76436 16.126 5.95603 16.3411 6.16245C16.3059 6.12896 16.2707 6.09547 16.2355 6.06199C16.5748 6.38802 16.879 6.7485 17.1398 7.13833C17.1704 7.18402 17.2009 7.2297 17.2297 7.27471C17.2446 7.29842 17.2585 7.31972 17.2734 7.34343C17.3303 7.4352 17.2111 7.23961 17.2524 7.30941C17.3058 7.39983 17.3574 7.48959 17.406 7.58216C17.5023 7.759 17.589 7.94013 17.6678 8.12621C17.7397 8.29368 17.805 8.46262 17.8631 8.63477C17.8768 8.67202 17.8881 8.71034 17.8994 8.74865C17.9057 8.76902 17.9119 8.78938 17.9187 8.80801C17.9213 8.81698 17.9238 8.82596 17.9271 8.83319C17.9526 8.91291 17.8884 8.70444 17.9027 8.75589C17.9253 8.83252 17.9462 8.90849 17.9665 8.98619C18.0338 9.24383 18.0856 9.5055 18.1225 9.76944C18.1473 9.94482 18.1644 10.1193 18.1709 10.2956C18.1694 10.2471 18.168 10.1986 18.1666 10.1501C18.1667 10.1761 18.1691 10.201 18.1674 10.2263C18.1661 10.3757 18.1921 10.5116 18.2886 10.6305C18.3749 10.7396 18.53 10.831 18.6717 10.8374C18.9544 10.852 19.2804 10.6493 19.2848 10.3352C19.2907 9.89187 19.224 9.44464 19.1253 9.0131C18.8978 8.01455 18.4791 7.07059 17.8768 6.24003C17.4446 5.64458 16.9093 5.11949 16.3188 4.6811C16.0833 4.50685 15.7029 4.54875 15.5345 4.79988C15.3689 5.0541 15.4052 5.39776 15.6572 5.58635Z" fill="black" fill-opacity="0.05"/>
</g>
<defs>
<clipPath id="clip0">
<rect x="6.08887" y="0.736816" width="15.7856" height="17" transform="rotate(20.9881 6.08887 0.736816)" fill="white"/>
</clipPath>
</defs>
</svg>
