<svg width="15" height="15" viewBox="0 0 15 15" fill="none" xmlns="http://www.w3.org/2000/svg">
<circle cx="7.5" cy="7.5" r="6.5" fill="#EC008C"/>
<circle cx="7.5" cy="7.5" r="6.5" fill="black" fill-opacity="0.05"/>
<circle cx="7.5" cy="7.5" r="6.5" stroke="#EC008C" stroke-width="2"/>
<circle cx="7.5" cy="7.5" r="6.5" stroke="black" stroke-opacity="0.05" stroke-width="2"/>
<path d="M6.94923 9.48596H8.62237L8.97208 2.3996H6.59951L6.94923 9.48596ZM8.99951 11.9666C8.99951 11.5604 8.89665 11.2533 8.69094 11.0454C8.48523 10.8375 8.1858 10.7335 7.79265 10.7335C7.41323 10.7335 7.12065 10.8399 6.91494 11.0527C6.70465 11.2654 6.59951 11.57 6.59951 11.9666C6.59951 12.3486 6.70465 12.6508 6.91494 12.8732C7.12523 13.0908 7.4178 13.1996 7.79265 13.1996C8.17665 13.1996 8.4738 13.0932 8.68408 12.8805C8.89437 12.6629 8.99951 12.3582 8.99951 11.9666Z" fill="white"/>
</svg>
