<svg width="14" height="13" viewBox="0 0 14 13" fill="none" xmlns="http://www.w3.org/2000/svg">
<path d="M12.6647 3.03333L2.82802 1.77666L2.65469 0.389999C2.61135 0.173333 2.43802 0 2.22135 0H0.488021C0.271354 0 0.0546875 0.216666 0.0546875 0.433332C0.0546875 0.649998 0.271354 0.866665 0.488021 0.866665H1.83135L2.00469 2.20999L2.74135 7.27998L2.09135 8.70998C1.96135 8.96998 2.00469 9.27331 2.13469 9.53331C2.26469 9.79331 2.56802 9.92331 2.87135 9.92331H11.7547C11.9714 9.92331 12.188 9.70664 12.188 9.48998C12.188 9.27331 11.9714 9.05664 11.7547 9.05664H2.91469L3.52135 7.75665H11.8414C12.2747 7.75665 12.6647 7.40998 12.708 6.97665L13.0547 3.50999C13.0547 3.29333 12.9247 3.07666 12.6647 3.03333Z" fill="white"/>
<path d="M10.4548 10.3999C9.76145 10.3999 9.15479 11.0066 9.15479 11.6999C9.15479 12.3932 9.76145 12.9999 10.4548 12.9999C11.1481 12.9999 11.7548 12.3932 11.7548 11.6999C11.7548 11.0066 11.1481 10.3999 10.4548 10.3999Z" fill="white"/>
<path d="M3.95479 10.3999C3.26145 10.3999 2.65479 11.0066 2.65479 11.6999C2.65479 12.3932 3.26145 12.9999 3.95479 12.9999C4.64812 12.9999 5.25479 12.3932 5.25479 11.6999C5.25479 11.0066 4.64812 10.3999 3.95479 10.3999Z" fill="white"/>
</svg>
