<svg width="19" height="20" viewBox="0 0 19 20" fill="none" xmlns="http://www.w3.org/2000/svg">
<path d="M18.381 4.95189L4.04256 3.11522L3.7899 1.08855C3.72674 0.771888 3.47408 0.518555 3.15825 0.518555H0.63165C0.315825 0.518555 0 0.835221 0 1.15189C0 1.46855 0.315825 1.78522 0.63165 1.78522H2.58977L2.84243 3.74855L3.91623 11.1586L2.96876 13.2486C2.77926 13.6286 2.84243 14.0719 3.03192 14.4519C3.22142 14.8319 3.66357 15.0219 4.10573 15.0219H17.0546C17.3704 15.0219 17.6862 14.7052 17.6862 14.3886C17.6862 14.0719 17.3704 13.7552 17.0546 13.7552H4.16889L5.0532 11.8552H17.1809C17.8125 11.8552 18.381 11.3486 18.4442 10.7152L18.9495 5.64855C18.9495 5.33189 18.76 5.01522 18.381 4.95189Z" fill="#004EA2"/>
<path d="M15.1596 15.7188C14.149 15.7188 13.2646 16.6054 13.2646 17.6188C13.2646 18.6321 14.149 19.5188 15.1596 19.5188C16.1702 19.5188 17.0546 18.6321 17.0546 17.6188C17.0546 16.6054 16.1702 15.7188 15.1596 15.7188Z" fill="#004EA2"/>
<path d="M5.68499 15.7188C4.67435 15.7188 3.79004 16.6054 3.79004 17.6188C3.79004 18.6321 4.67435 19.5188 5.68499 19.5188C6.69563 19.5188 7.57994 18.6321 7.57994 17.6188C7.57994 16.6054 6.69563 15.7188 5.68499 15.7188Z" fill="#004EA2"/>
</svg>
