<svg width="19" height="20" viewBox="0 0 19 20" fill="none" xmlns="http://www.w3.org/2000/svg">
<path d="M18.1263 4.88459L3.98654 3.07337L3.73738 1.0748C3.67509 0.762518 3.42593 0.512695 3.11448 0.512695H0.622896C0.311448 0.512695 0 0.824973 0 1.13725C0 1.44953 0.311448 1.76181 0.622896 1.76181H2.55387L2.80303 3.69793L3.86196 11.0052L2.92761 13.0663C2.74074 13.441 2.80303 13.8782 2.9899 14.2529C3.17677 14.6277 3.6128 14.815 4.04883 14.815H16.8182C17.1296 14.815 17.4411 14.5027 17.4411 14.1905C17.4411 13.8782 17.1296 13.5659 16.8182 13.5659H4.11112L4.98317 11.6922H16.9428C17.5657 11.6922 18.1263 11.1926 18.1886 10.568L18.6869 5.5716C18.6869 5.25932 18.5 4.94704 18.1263 4.88459Z" fill="white"/>
<path d="M14.9493 15.502C13.9526 15.502 13.0806 16.3763 13.0806 17.3756C13.0806 18.3749 13.9526 19.2493 14.9493 19.2493C15.9459 19.2493 16.8179 18.3749 16.8179 17.3756C16.8179 16.3763 15.9459 15.502 14.9493 15.502Z" fill="white"/>
<path d="M5.60599 15.502C4.60936 15.502 3.7373 16.3763 3.7373 17.3756C3.7373 18.3749 4.60936 19.2493 5.60599 19.2493C6.60263 19.2493 7.47468 18.3749 7.47468 17.3756C7.47468 16.3763 6.60263 15.502 5.60599 15.502Z" fill="white"/>
</svg>
