<svg width="7" height="7" viewBox="0 0 7 7" fill="none" xmlns="http://www.w3.org/2000/svg">
<path d="M6.97276 0.227273C7.01831 0.363636 7.01831 0.5 6.88167 0.590909L4.46769 3.04545C4.42214 3.09091 4.3766 3.18182 4.3766 3.22727V6.63636C4.3766 6.77273 4.2855 6.90909 4.14886 6.95455C4.10331 6.95455 4.05777 7 4.01222 7C3.92113 7 3.83003 6.95455 3.78449 6.90909L2.73691 5.86364C2.69137 5.81818 2.64582 5.72727 2.64582 5.63636V3.22727C2.64582 3.18182 2.60027 3.04545 2.55472 3.04545L0.0952004 0.590909C0.00410695 0.5 -0.0414398 0.363636 0.0496537 0.227273C0.0952004 0.0909091 0.231841 0 0.368481 0H6.65393C6.79057 0 6.92721 0.0909091 6.97276 0.227273Z" fill="#333333"/>
</svg>
