<svg width="9" height="13" viewBox="0 0 9 13" fill="none" xmlns="http://www.w3.org/2000/svg">
<path d="M3.48294 12.1882C3.69948 12.6286 4.32203 12.6286 4.53857 12.1882C4.53857 12.1882 7.0017 7.28878 7.57011 6.13274C8.13853 4.97669 8.1656 3.68302 7.57011 2.47192C6.59569 0.462604 4.18669 -0.335618 2.21077 0.682803C0.234847 1.70123 -0.52304 4.20599 0.451387 6.13274C1.42581 8.05948 3.48294 12.1882 3.48294 12.1882ZM4.02428 2.4444C5.07991 2.4444 5.919 3.29767 5.919 4.37114C5.919 5.44461 5.07991 6.29789 4.02428 6.29789C2.96866 6.29789 2.12957 5.44461 2.12957 4.37114C2.12957 3.3252 2.96866 2.4444 4.02428 2.4444Z" fill="#EC008C"/>
<path d="M3.48294 12.1882C3.69948 12.6286 4.32203 12.6286 4.53857 12.1882C4.53857 12.1882 7.0017 7.28878 7.57011 6.13274C8.13853 4.97669 8.1656 3.68302 7.57011 2.47192C6.59569 0.462604 4.18669 -0.335618 2.21077 0.682803C0.234847 1.70123 -0.52304 4.20599 0.451387 6.13274C1.42581 8.05948 3.48294 12.1882 3.48294 12.1882ZM4.02428 2.4444C5.07991 2.4444 5.919 3.29767 5.919 4.37114C5.919 5.44461 5.07991 6.29789 4.02428 6.29789C2.96866 6.29789 2.12957 5.44461 2.12957 4.37114C2.12957 3.3252 2.96866 2.4444 4.02428 2.4444Z" fill="black" fill-opacity="0.05"/>
</svg>
