<svg width="18" height="28" viewBox="0 0 18 28" fill="none" xmlns="http://www.w3.org/2000/svg">
<path d="M7.79432 26.9552C8.28285 27.9488 9.68735 27.9488 10.1759 26.9552C10.1759 26.9552 15.7328 15.9019 17.0152 13.2938C18.2976 10.6857 18.3586 7.76708 17.0152 5.03479C14.8168 0.501676 9.38202 -1.29915 4.92425 0.998456C0.466486 3.29606 -1.24334 8.94693 0.955008 13.2938C3.15336 17.6406 7.79432 26.9552 7.79432 26.9552ZM9.01563 4.97269C11.3972 4.97269 13.2902 6.89772 13.2902 9.31952C13.2902 11.7413 11.3972 13.6663 9.01563 13.6663C6.63408 13.6663 4.74106 11.7413 4.74106 9.31952C4.74106 6.95981 6.63408 4.97269 9.01563 4.97269Z" fill="white"/>
</svg>
