<svg width="173" height="95" viewBox="0 0 173 95" fill="none" xmlns="http://www.w3.org/2000/svg">
<path d="M35.936 74V66.572H40.076V67.616H37.136V69.452H40.076V70.496H37.136V74H35.936ZM42.3083 74V66.572H43.5083V72.908H46.2083V74H42.3083ZM54.4828 71.78C54.1708 72.54 53.6668 73.128 52.9708 73.544C52.2828 73.96 51.5548 74.168 50.7868 74.168C50.7228 74.168 50.6588 74.164 50.5948 74.156C50.5388 74.156 50.4788 74.152 50.4148 74.144C50.1588 74.12 49.9068 74.072 49.6588 74C49.4108 73.936 49.1708 73.844 48.9388 73.724C48.2828 73.372 47.7668 72.884 47.3908 72.26C47.0228 71.636 46.8388 70.972 46.8388 70.268C46.8388 70.156 46.8428 70.044 46.8508 69.932C46.8668 69.82 46.8868 69.708 46.9108 69.596C46.9428 69.404 46.9948 69.212 47.0668 69.02C47.1388 68.82 47.2188 68.632 47.3068 68.456C47.6668 67.8 48.1628 67.296 48.7948 66.944C49.4348 66.592 50.1068 66.416 50.8108 66.416C50.9308 66.416 51.0548 66.424 51.1828 66.44C51.3108 66.448 51.4348 66.464 51.5548 66.488C51.8108 66.536 52.0628 66.608 52.3108 66.704C52.5588 66.792 52.7908 66.908 53.0068 67.052C53.5588 67.412 53.9868 67.892 54.2908 68.492C54.6028 69.084 54.7588 69.7 54.7588 70.34C54.7588 70.588 54.7348 70.832 54.6868 71.072C54.6388 71.312 54.5708 71.548 54.4828 71.78ZM50.8108 73.064C51.5708 73.064 52.2108 72.788 52.7308 72.236C53.2508 71.684 53.5108 71.04 53.5108 70.304C53.5108 69.552 53.2428 68.9 52.7068 68.348C52.1788 67.796 51.5388 67.52 50.7868 67.52H50.5348C49.8308 67.592 49.2468 67.912 48.7828 68.48C48.3188 69.04 48.0868 69.66 48.0868 70.34C48.0868 70.38 48.0868 70.42 48.0868 70.46C48.0948 70.5 48.1028 70.54 48.1108 70.58C48.1108 70.604 48.1108 70.628 48.1108 70.652C48.1188 70.668 48.1228 70.688 48.1228 70.712C48.1308 70.736 48.1348 70.76 48.1348 70.784C48.1428 70.8 48.1468 70.816 48.1468 70.832C48.2748 71.464 48.5908 71.996 49.0948 72.428C49.5988 72.852 50.1708 73.064 50.8108 73.064ZM63.3877 71.78C63.0757 72.54 62.5717 73.128 61.8757 73.544C61.1877 73.96 60.4597 74.168 59.6917 74.168C59.6277 74.168 59.5637 74.164 59.4997 74.156C59.4437 74.156 59.3837 74.152 59.3197 74.144C59.0637 74.12 58.8117 74.072 58.5637 74C58.3157 73.936 58.0757 73.844 57.8437 73.724C57.1877 73.372 56.6717 72.884 56.2957 72.26C55.9277 71.636 55.7437 70.972 55.7437 70.268C55.7437 70.156 55.7477 70.044 55.7557 69.932C55.7717 69.82 55.7917 69.708 55.8157 69.596C55.8477 69.404 55.8997 69.212 55.9717 69.02C56.0437 68.82 56.1237 68.632 56.2117 68.456C56.5717 67.8 57.0677 67.296 57.6997 66.944C58.3397 66.592 59.0117 66.416 59.7157 66.416C59.8357 66.416 59.9597 66.424 60.0877 66.44C60.2157 66.448 60.3397 66.464 60.4597 66.488C60.7157 66.536 60.9677 66.608 61.2157 66.704C61.4637 66.792 61.6957 66.908 61.9117 67.052C62.4637 67.412 62.8917 67.892 63.1957 68.492C63.5077 69.084 63.6637 69.7 63.6637 70.34C63.6637 70.588 63.6397 70.832 63.5917 71.072C63.5437 71.312 63.4757 71.548 63.3877 71.78ZM59.7157 73.064C60.4757 73.064 61.1157 72.788 61.6357 72.236C62.1557 71.684 62.4157 71.04 62.4157 70.304C62.4157 69.552 62.1477 68.9 61.6117 68.348C61.0837 67.796 60.4437 67.52 59.6917 67.52H59.4397C58.7357 67.592 58.1517 67.912 57.6877 68.48C57.2237 69.04 56.9917 69.66 56.9917 70.34C56.9917 70.38 56.9917 70.42 56.9917 70.46C56.9997 70.5 57.0077 70.54 57.0157 70.58C57.0157 70.604 57.0157 70.628 57.0157 70.652C57.0237 70.668 57.0277 70.688 57.0277 70.712C57.0357 70.736 57.0397 70.76 57.0397 70.784C57.0477 70.8 57.0517 70.816 57.0517 70.832C57.1797 71.464 57.4957 71.996 57.9997 72.428C58.5037 72.852 59.0757 73.064 59.7157 73.064ZM66.1605 70.676V74H65.0325V66.572H66.7125C66.7845 66.572 66.8565 66.572 66.9285 66.572C67.0005 66.572 67.0765 66.576 67.1565 66.584C67.4365 66.592 67.7085 66.628 67.9725 66.692C68.2445 66.756 68.4845 66.892 68.6925 67.1C68.8685 67.276 69.0045 67.48 69.1005 67.712C69.1965 67.936 69.2525 68.164 69.2685 68.396C69.2765 68.428 69.2805 68.464 69.2805 68.504C69.2805 68.536 69.2805 68.572 69.2805 68.612C69.2805 69.22 69.1405 69.684 68.8605 70.004C68.5805 70.316 68.1565 70.52 67.5885 70.616L70.1325 74H68.7765L66.3045 70.676H66.1605ZM66.2445 67.616V69.74C66.2765 69.74 66.3045 69.744 66.3285 69.752C66.3605 69.752 66.3925 69.752 66.4245 69.752C66.4485 69.752 66.4725 69.756 66.4965 69.764C66.5285 69.764 66.5605 69.764 66.5925 69.764C66.6325 69.764 66.6685 69.764 66.7005 69.764C66.7405 69.764 66.7805 69.764 66.8205 69.764C67.1165 69.748 67.3885 69.68 67.6365 69.56C67.8925 69.44 68.0245 69.188 68.0325 68.804V68.708C68.0325 68.204 67.8725 67.896 67.5525 67.784C67.2325 67.672 66.8725 67.616 66.4725 67.616H66.2445ZM75.9788 74V66.572H77.7548C77.9068 66.572 78.0588 66.572 78.2108 66.572C78.3628 66.572 78.5188 66.576 78.6788 66.584C79.1348 66.608 79.5828 66.68 80.0228 66.8C80.4708 66.92 80.8668 67.148 81.2108 67.484C81.5628 67.82 81.8268 68.228 82.0028 68.708C82.1868 69.18 82.2828 69.672 82.2908 70.184C82.2908 70.2 82.2908 70.216 82.2908 70.232C82.2908 70.248 82.2908 70.264 82.2908 70.28C82.2908 70.808 82.1988 71.32 82.0148 71.816C81.8388 72.312 81.5708 72.736 81.2108 73.088C80.8028 73.48 80.3428 73.728 79.8308 73.832C79.3188 73.936 78.7948 73.992 78.2588 74C78.1948 74 78.1308 74 78.0668 74C78.0108 74 77.9508 74 77.8868 74H75.9788ZM77.1908 72.908C77.2708 72.908 77.3508 72.912 77.4308 72.92C77.5108 72.92 77.5908 72.92 77.6708 72.92C77.7428 72.92 77.8188 72.924 77.8988 72.932C77.9788 72.932 78.0588 72.932 78.1388 72.932C78.2028 72.932 78.2668 72.932 78.3308 72.932C78.3948 72.932 78.4548 72.928 78.5108 72.92C78.6388 72.912 78.7668 72.9 78.8948 72.884C79.0228 72.868 79.1428 72.852 79.2548 72.836C79.8228 72.748 80.2548 72.464 80.5508 71.984C80.8468 71.504 81.0108 70.984 81.0428 70.424C81.0428 70.4 81.0428 70.376 81.0428 70.352C81.0428 70.32 81.0428 70.292 81.0428 70.268C81.0428 70.236 81.0428 70.204 81.0428 70.172C81.0428 70.14 81.0428 70.108 81.0428 70.076C81.0188 69.668 80.9188 69.276 80.7428 68.9C80.5748 68.524 80.3308 68.228 80.0108 68.012C79.8348 67.892 79.6348 67.808 79.4108 67.76C79.1948 67.704 78.9748 67.668 78.7508 67.652C78.6868 67.644 78.6188 67.64 78.5468 67.64C78.4748 67.64 78.4068 67.64 78.3428 67.64C78.3108 67.64 78.2788 67.64 78.2468 67.64C78.2148 67.64 78.1788 67.64 78.1388 67.64C78.0748 67.64 78.0108 67.644 77.9468 67.652C77.8828 67.652 77.8188 67.652 77.7548 67.652C77.6508 67.652 77.5508 67.656 77.4548 67.664C77.3668 67.664 77.2788 67.664 77.1908 67.664V72.908ZM83.6763 74V66.572H87.8163V67.616H84.8763V69.452H87.8163V70.52H84.8763V72.908H87.8163V74H83.6763ZM89.6116 72.5L90.5956 72.056C90.6676 72.304 90.7836 72.516 90.9436 72.692C91.1116 72.868 91.3316 72.98 91.6036 73.028C91.6196 73.028 91.6356 73.032 91.6516 73.04C91.6676 73.04 91.6836 73.044 91.6996 73.052C91.7476 73.06 91.7956 73.068 91.8436 73.076C91.8996 73.084 91.9556 73.088 92.0116 73.088C92.0356 73.088 92.0636 73.088 92.0956 73.088C92.1276 73.088 92.1556 73.084 92.1796 73.076C92.3396 73.06 92.4916 73.016 92.6356 72.944C92.7876 72.872 92.9076 72.772 92.9956 72.644C93.0356 72.572 93.0716 72.496 93.1036 72.416C93.1356 72.328 93.1556 72.24 93.1636 72.152C93.1716 72.128 93.1756 72.108 93.1756 72.092C93.1756 72.068 93.1756 72.044 93.1756 72.02C93.1756 71.98 93.1716 71.944 93.1636 71.912C93.1636 71.872 93.1596 71.832 93.1516 71.792C93.1436 71.728 93.1316 71.668 93.1156 71.612C93.0996 71.556 93.0756 71.504 93.0436 71.456C92.9636 71.32 92.8396 71.2 92.6716 71.096C92.5036 70.992 92.3236 70.9 92.1316 70.82C92.0036 70.756 91.8756 70.7 91.7476 70.652C91.6196 70.596 91.5076 70.54 91.4116 70.484C91.4036 70.484 91.3956 70.484 91.3876 70.484C91.3796 70.476 91.3716 70.468 91.3636 70.46C91.0196 70.276 90.6956 70.052 90.3916 69.788C90.0956 69.524 89.9156 69.184 89.8516 68.768C89.8516 68.744 89.8476 68.72 89.8396 68.696C89.8396 68.664 89.8396 68.636 89.8396 68.612C89.8316 68.588 89.8236 68.564 89.8156 68.54C89.8156 68.508 89.8156 68.48 89.8156 68.456C89.8156 68.408 89.8156 68.36 89.8156 68.312C89.8236 68.256 89.8316 68.2 89.8396 68.144C89.8716 67.952 89.9276 67.764 90.0076 67.58C90.0956 67.396 90.2036 67.236 90.3316 67.1C90.5156 66.892 90.7516 66.728 91.0396 66.608C91.3276 66.488 91.6236 66.416 91.9276 66.392C91.9516 66.392 91.9756 66.392 91.9996 66.392C92.0316 66.392 92.0596 66.392 92.0836 66.392C92.1156 66.392 92.1476 66.392 92.1796 66.392C92.2116 66.392 92.2436 66.396 92.2756 66.404C92.6756 66.428 93.0556 66.544 93.4156 66.752C93.7756 66.952 94.0316 67.248 94.1836 67.64L93.2596 68.132C93.1236 67.924 92.9636 67.76 92.7796 67.64C92.6036 67.512 92.3916 67.448 92.1436 67.448H92.1076C91.8276 67.456 91.5916 67.552 91.3996 67.736C91.2076 67.92 91.0996 68.124 91.0756 68.348C91.0756 68.364 91.0756 68.38 91.0756 68.396C91.0756 68.404 91.0756 68.412 91.0756 68.42C91.0756 68.444 91.0756 68.472 91.0756 68.504C91.0836 68.536 91.0916 68.564 91.0996 68.588C91.1156 68.692 91.1556 68.792 91.2196 68.888C91.2836 68.984 91.3636 69.068 91.4596 69.14C91.6196 69.284 91.7956 69.408 91.9876 69.512C92.1876 69.608 92.3876 69.696 92.5876 69.776C92.6036 69.784 92.6156 69.792 92.6236 69.8C92.6316 69.8 92.6436 69.804 92.6596 69.812C92.8116 69.876 92.9596 69.944 93.1036 70.016C93.2556 70.08 93.3956 70.156 93.5236 70.244C93.7796 70.42 93.9796 70.636 94.1236 70.892C94.2756 71.148 94.3676 71.412 94.3996 71.684C94.4076 71.732 94.4116 71.78 94.4116 71.828C94.4196 71.876 94.4236 71.924 94.4236 71.972C94.4236 72.404 94.2996 72.812 94.0516 73.196C93.8116 73.58 93.4676 73.852 93.0196 74.012C92.9396 74.036 92.8556 74.06 92.7676 74.084C92.6796 74.108 92.5916 74.124 92.5036 74.132C92.4076 74.148 92.3156 74.16 92.2276 74.168C92.1396 74.176 92.0556 74.18 91.9756 74.18C91.4476 74.18 90.9596 74.04 90.5116 73.76C90.0636 73.48 89.7636 73.06 89.6116 72.5ZM97.0767 74V66.572H98.2887V74H97.0767ZM104.882 70.208H107.822V70.772C107.822 71.356 107.738 71.908 107.57 72.428C107.402 72.94 107.026 73.36 106.442 73.688C106.218 73.816 105.974 73.916 105.71 73.988C105.454 74.06 105.194 74.112 104.93 74.144C104.842 74.152 104.754 74.156 104.666 74.156C104.578 74.164 104.49 74.168 104.402 74.168C104.37 74.168 104.338 74.168 104.306 74.168C104.274 74.168 104.242 74.168 104.21 74.168C103.586 74.136 102.986 73.984 102.41 73.712C101.842 73.44 101.402 73.044 101.09 72.524C100.922 72.252 100.786 71.968 100.682 71.672C100.578 71.368 100.51 71.064 100.478 70.76C100.47 70.68 100.462 70.604 100.454 70.532C100.454 70.452 100.454 70.376 100.454 70.304C100.454 69.6 100.63 68.932 100.982 68.3C101.334 67.66 101.85 67.176 102.53 66.848C102.706 66.752 102.89 66.676 103.082 66.62C103.282 66.556 103.478 66.508 103.67 66.476C103.782 66.452 103.894 66.436 104.006 66.428C104.118 66.42 104.23 66.416 104.342 66.416C104.878 66.416 105.398 66.524 105.902 66.74C106.414 66.956 106.854 67.276 107.222 67.7L106.346 68.36C106.074 68.08 105.778 67.868 105.458 67.724C105.146 67.58 104.814 67.508 104.462 67.508C104.358 67.508 104.25 67.516 104.138 67.532C104.026 67.54 103.91 67.556 103.79 67.58C103.766 67.58 103.738 67.584 103.706 67.592C103.682 67.6 103.654 67.608 103.622 67.616C102.99 67.8 102.51 68.144 102.182 68.648C101.862 69.144 101.702 69.688 101.702 70.28C101.702 70.32 101.702 70.36 101.702 70.4C101.71 70.44 101.714 70.48 101.714 70.52C101.714 70.536 101.714 70.556 101.714 70.58C101.722 70.596 101.726 70.612 101.726 70.628C101.734 70.668 101.738 70.708 101.738 70.748C101.746 70.78 101.75 70.812 101.75 70.844C101.87 71.548 102.19 72.104 102.71 72.512C103.23 72.92 103.818 73.124 104.474 73.124C104.538 73.124 104.598 73.12 104.654 73.112C104.718 73.104 104.782 73.096 104.846 73.088C104.87 73.088 104.894 73.084 104.918 73.076C104.95 73.068 104.978 73.064 105.002 73.064C105.042 73.056 105.078 73.052 105.11 73.052C105.15 73.044 105.186 73.036 105.218 73.028C105.69 72.932 106.05 72.732 106.298 72.428C106.554 72.116 106.682 71.732 106.682 71.276V71.216H104.882V70.208ZM109.379 74V66.284L114.083 70.808C114.123 70.848 114.159 70.888 114.191 70.928C114.223 70.96 114.259 70.996 114.299 71.036C114.347 71.084 114.391 71.136 114.431 71.192C114.479 71.24 114.527 71.292 114.575 71.348C114.631 71.404 114.683 71.464 114.731 71.528C114.787 71.592 114.843 71.656 114.899 71.72V66.572H116.003V74.276L111.203 69.668C111.067 69.54 110.939 69.408 110.819 69.272C110.707 69.128 110.595 68.98 110.483 68.828V74H109.379ZM118.265 74V66.572H122.405V67.616H119.465V69.452H122.405V70.52H119.465V72.908H122.405V74H118.265ZM126.061 70.676V74H124.933V66.572H126.613C126.685 66.572 126.757 66.572 126.829 66.572C126.901 66.572 126.977 66.576 127.057 66.584C127.337 66.592 127.609 66.628 127.873 66.692C128.145 66.756 128.385 66.892 128.593 67.1C128.769 67.276 128.905 67.48 129.001 67.712C129.097 67.936 129.153 68.164 129.169 68.396C129.177 68.428 129.181 68.464 129.181 68.504C129.181 68.536 129.181 68.572 129.181 68.612C129.181 69.22 129.041 69.684 128.761 70.004C128.481 70.316 128.057 70.52 127.489 70.616L130.033 74H128.677L126.205 70.676H126.061ZM126.145 67.616V69.74C126.177 69.74 126.205 69.744 126.229 69.752C126.261 69.752 126.293 69.752 126.325 69.752C126.349 69.752 126.373 69.756 126.397 69.764C126.429 69.764 126.461 69.764 126.493 69.764C126.533 69.764 126.569 69.764 126.601 69.764C126.641 69.764 126.681 69.764 126.721 69.764C127.017 69.748 127.289 69.68 127.537 69.56C127.793 69.44 127.925 69.188 127.933 68.804V68.708C127.933 68.204 127.773 67.896 127.453 67.784C127.133 67.672 126.773 67.616 126.373 67.616H126.145ZM130.865 72.5L131.849 72.056C131.921 72.304 132.037 72.516 132.197 72.692C132.365 72.868 132.585 72.98 132.857 73.028C132.873 73.028 132.889 73.032 132.905 73.04C132.921 73.04 132.937 73.044 132.953 73.052C133.001 73.06 133.049 73.068 133.097 73.076C133.153 73.084 133.209 73.088 133.265 73.088C133.289 73.088 133.317 73.088 133.349 73.088C133.381 73.088 133.409 73.084 133.433 73.076C133.593 73.06 133.745 73.016 133.889 72.944C134.041 72.872 134.161 72.772 134.249 72.644C134.289 72.572 134.325 72.496 134.357 72.416C134.389 72.328 134.409 72.24 134.417 72.152C134.425 72.128 134.429 72.108 134.429 72.092C134.429 72.068 134.429 72.044 134.429 72.02C134.429 71.98 134.425 71.944 134.417 71.912C134.417 71.872 134.413 71.832 134.405 71.792C134.397 71.728 134.385 71.668 134.369 71.612C134.353 71.556 134.329 71.504 134.297 71.456C134.217 71.32 134.093 71.2 133.925 71.096C133.757 70.992 133.577 70.9 133.385 70.82C133.257 70.756 133.129 70.7 133.001 70.652C132.873 70.596 132.761 70.54 132.665 70.484C132.657 70.484 132.649 70.484 132.641 70.484C132.633 70.476 132.625 70.468 132.617 70.46C132.273 70.276 131.949 70.052 131.645 69.788C131.349 69.524 131.169 69.184 131.105 68.768C131.105 68.744 131.101 68.72 131.093 68.696C131.093 68.664 131.093 68.636 131.093 68.612C131.085 68.588 131.077 68.564 131.069 68.54C131.069 68.508 131.069 68.48 131.069 68.456C131.069 68.408 131.069 68.36 131.069 68.312C131.077 68.256 131.085 68.2 131.093 68.144C131.125 67.952 131.181 67.764 131.261 67.58C131.349 67.396 131.457 67.236 131.585 67.1C131.769 66.892 132.005 66.728 132.293 66.608C132.581 66.488 132.877 66.416 133.181 66.392C133.205 66.392 133.229 66.392 133.253 66.392C133.285 66.392 133.313 66.392 133.337 66.392C133.369 66.392 133.401 66.392 133.433 66.392C133.465 66.392 133.497 66.396 133.529 66.404C133.929 66.428 134.309 66.544 134.669 66.752C135.029 66.952 135.285 67.248 135.437 67.64L134.513 68.132C134.377 67.924 134.217 67.76 134.033 67.64C133.857 67.512 133.645 67.448 133.397 67.448H133.361C133.081 67.456 132.845 67.552 132.653 67.736C132.461 67.92 132.353 68.124 132.329 68.348C132.329 68.364 132.329 68.38 132.329 68.396C132.329 68.404 132.329 68.412 132.329 68.42C132.329 68.444 132.329 68.472 132.329 68.504C132.337 68.536 132.345 68.564 132.353 68.588C132.369 68.692 132.409 68.792 132.473 68.888C132.537 68.984 132.617 69.068 132.713 69.14C132.873 69.284 133.049 69.408 133.241 69.512C133.441 69.608 133.641 69.696 133.841 69.776C133.857 69.784 133.869 69.792 133.877 69.8C133.885 69.8 133.897 69.804 133.913 69.812C134.065 69.876 134.213 69.944 134.357 70.016C134.509 70.08 134.649 70.156 134.777 70.244C135.033 70.42 135.233 70.636 135.377 70.892C135.529 71.148 135.621 71.412 135.653 71.684C135.661 71.732 135.665 71.78 135.665 71.828C135.673 71.876 135.677 71.924 135.677 71.972C135.677 72.404 135.553 72.812 135.305 73.196C135.065 73.58 134.721 73.852 134.273 74.012C134.193 74.036 134.109 74.06 134.021 74.084C133.933 74.108 133.845 74.124 133.757 74.132C133.661 74.148 133.569 74.16 133.481 74.168C133.393 74.176 133.309 74.18 133.229 74.18C132.701 74.18 132.213 74.04 131.765 73.76C131.317 73.48 131.017 73.06 130.865 72.5Z" fill="white"/>
<path d="M154.953 48.9935C154.387 48.9804 153.936 48.7974 153.602 48.4444C153.267 48.0915 153.072 47.7059 153.019 47.2876C153.01 47.2484 153.004 47.2092 153 47.1699C153 47.1307 153 47.0915 153 47.0523C153 47.0479 153 47.0414 153 47.0327C153.004 47.024 153.006 47.0153 153.006 47.0065C153.006 47.0022 153.006 46.9956 153.006 46.9869C153.01 46.9782 153.012 46.9717 153.012 46.9673C153.012 46.4444 153.201 45.9869 153.577 45.5948C153.953 45.1983 154.445 45 155.053 45C155.57 45 156.022 45.1874 156.411 45.5621C156.804 45.9325 157 46.4009 157 46.9673C157 47.5033 156.814 47.976 156.442 48.3856C156.074 48.7952 155.594 49 155.003 49C154.999 49 154.995 49 154.991 49C154.987 49 154.982 49 154.978 49C154.978 49 154.978 48.9978 154.978 48.9935C154.97 48.9935 154.964 48.9935 154.96 48.9935C154.956 48.9935 154.953 48.9935 154.953 48.9935ZM156.64 46.9281V46.8627C156.64 46.8061 156.636 46.7495 156.628 46.6928C156.62 46.6362 156.607 46.5795 156.591 46.5229C156.512 46.2222 156.336 45.9477 156.064 45.6993C155.795 45.451 155.454 45.3268 155.04 45.3268H154.972C154.505 45.3442 154.145 45.4815 153.893 45.7386C153.641 45.9913 153.475 46.2702 153.397 46.5752C153.376 46.6536 153.36 46.732 153.347 46.8105C153.339 46.8889 153.335 46.9651 153.335 47.0392C153.347 47.4357 153.453 47.756 153.651 48C153.854 48.2397 154.075 48.4161 154.315 48.5294C154.43 48.5817 154.542 48.6209 154.65 48.6471C154.761 48.6732 154.863 48.6863 154.953 48.6863C155.417 48.6863 155.789 48.549 156.07 48.2745C156.355 48 156.533 47.6972 156.603 47.366C156.616 47.3137 156.624 47.2614 156.628 47.2092C156.636 47.1569 156.64 47.1046 156.64 47.0523V46.9281ZM155.171 45.9216C155.414 45.9216 155.594 45.9673 155.71 46.0588C155.83 46.146 155.89 46.2898 155.89 46.4902C155.89 46.6863 155.844 46.8301 155.753 46.9216C155.667 47.0131 155.514 47.0806 155.295 47.1242L155.89 48.1307H155.493L154.953 47.1242H154.519V48.1307H154.191V45.9216H155.171ZM155.133 46.1961H154.519V46.8105H155.171C155.307 46.8105 155.408 46.7843 155.474 46.732C155.541 46.6754 155.574 46.6057 155.574 46.5229C155.574 46.4357 155.539 46.3595 155.468 46.2941C155.402 46.2288 155.29 46.1961 155.133 46.1961Z" fill="white"/>
<path fill-rule="evenodd" clip-rule="evenodd" d="M138.783 44.6128H145.242L146.51 44.6745L147.113 44.7714L147.65 44.899L148.187 45.0884L148.663 45.3129L149.107 45.5683L149.517 45.8853L149.896 46.2375L150.213 46.6206L150.499 47.0653L150.719 47.5452L150.908 48.0868L151.036 48.6591L151.128 49.2976L151.159 49.9668L151.128 50.6713L151.067 51.3405L150.939 51.9173L150.781 52.4941L150.56 52.9696L150.305 53.4451L150.023 53.8282L149.675 54.2112L149.262 54.5326L148.852 54.788L148.377 55.0434L147.87 55.2019L147.298 55.3604L146.695 55.4572L146.061 55.5189L145.396 55.5497H143.023V60.9785H138.778V44.6128H138.783ZM143.027 52.1066H143.723L144.863 52.0758L145.369 52.0142L145.81 51.8513L146.188 51.6267L146.378 51.4682L146.505 51.2789L146.695 50.7681L146.756 50.0989L146.695 49.4296L146.505 48.9233L146.224 48.5403L145.871 48.2849L145.396 48.1572L144.889 48.0603L143.718 48.0295H143.023V52.1066H143.027ZM131.179 48.188V50.931H135.929V54.537H131.179V57.3769H136.185V60.9829H126.939V44.6128H136.185V48.1836H131.179V48.188ZM121.933 60.9785H117.688V48.188H114.205V44.6173H125.415V48.188H121.933V60.9785ZM111.101 48.8264L110.467 48.3773L109.803 48.0251L109.076 47.8006L108.693 47.7345H108.314L107.68 47.8006L107.108 48.0559L106.857 48.2497L106.663 48.505L106.536 48.7604L106.474 49.0774L106.536 49.4296L106.663 49.7202L106.883 49.9404L107.139 50.1341L107.773 50.4511L108.372 50.6449L109.45 50.9971L110.274 51.2525L111.031 51.6047L111.696 51.9877L112.299 52.4677L112.554 52.7539L112.775 53.0753L112.964 53.3967L113.122 53.7489L113.281 54.132L113.373 54.5458L113.435 54.9905V56.0737L113.373 56.6769L113.246 57.2845L113.092 57.8568L112.867 58.3984L112.581 58.94L112.198 59.4155L111.753 59.8646L111.26 60.2432L110.754 60.5646L110.181 60.82L109.613 61.0446L109.01 61.2031L108.376 61.2999L107.777 61.3968H107.143L106.381 61.366L105.62 61.2691L104.893 61.1106L104.167 60.9213L103.436 60.6263L102.74 60.3049L102.075 59.957L101.441 59.5432L103.247 56.1001L104.07 56.7693L104.515 57.0599L104.99 57.3153L105.466 57.509L105.968 57.6675L106.474 57.7644L107.011 57.7952H107.359L107.738 57.6983L108.085 57.5707L108.402 57.4121L108.658 57.1876L108.878 56.9014L109.006 56.5492L109.036 56.1661L108.975 55.7522L108.781 55.4L108.464 55.1138L108.116 54.8585L107.702 54.6691L107.258 54.5106L106.465 54.2905L105.514 53.9999L104.656 53.6829L103.929 53.3306L103.295 52.8859L103.009 52.6306L102.758 52.3092L102.569 51.9921L102.379 51.6091L102.252 51.1952L102.159 50.7505L102.093 50.2398V49.0466L102.19 48.4698L102.318 47.9282L102.507 47.3867L102.731 46.9068L102.982 46.4621L103.299 46.0482L103.652 45.6651L104.061 45.3129L104.475 45.0267L104.951 44.7714L105.426 44.5468L105.963 44.3883L106.505 44.2606L107.108 44.1946L107.68 44.1638L108.314 44.1946L108.979 44.2606L110.309 44.516L111.608 44.9607L112.211 45.216L112.779 45.5022L111.101 48.8264ZM88.2679 44.6128H93.5249L87.0615 52.3312L94.0929 60.9785H88.6113L83.1693 53.8634H83.1385V60.9785H78.894V44.6128H83.1385V51.3449H83.1693L88.2679 44.6128ZM76.2963 50.0989L75.9485 49.685L75.5698 49.302L75.1251 49.0158L74.6496 48.7604L74.1741 48.5359L73.6678 48.4082L73.1306 48.3113L72.5935 48.2805L72.1179 48.3113L71.6732 48.3729L71.2285 48.5006L70.8191 48.6283L70.4404 48.822L70.0926 49.0466L69.7756 49.302L69.4586 49.5882L69.2032 49.9404L68.9522 50.2618L68.7629 50.6449L68.5736 51.0587L68.3534 51.8865L68.2874 52.3664L68.2566 52.8111L68.3534 53.7665L68.5736 54.5943L68.7629 55.0082L68.9522 55.3604L69.2032 55.7126L69.4894 56.034L69.7756 56.2894L70.1234 56.5448L70.4712 56.7649L70.8499 56.9586L71.2638 57.0863L71.7041 57.1788L72.1796 57.2448L72.6551 57.2757L73.1614 57.2448L73.6986 57.1524L74.1741 57.0247L74.6496 56.8001L75.1251 56.5448L75.5698 56.2542L75.9485 55.9019L76.2963 55.5497V60.6263L75.3145 60.9477L74.3942 61.1678L73.5093 61.3263L72.5582 61.3924L71.7349 61.3616L70.9115 61.2339L70.0882 61.0446L69.2957 60.7892L68.5384 60.437L67.8119 60.0231L67.1162 59.5432L66.4822 59.0016L65.8482 58.3632L65.311 57.6939L64.8663 56.963L64.4877 56.1969L64.2323 55.4L64.0122 54.5723L63.9153 53.7093L63.8536 52.8155L63.9153 51.9877L64.0122 51.16L64.2015 50.3631L64.4877 49.5661L64.8355 48.8308L65.2494 48.1264L65.7249 47.4571L66.2621 46.8187L66.8961 46.2419L67.5917 45.7004L68.3182 45.2557L69.1107 44.8726L69.9033 44.582L70.7266 44.3619L71.5808 44.199L72.4349 44.1682L73.4476 44.2298L74.4295 44.3883L75.3497 44.6437L76.3007 44.9959V50.0989H76.2963ZM57.7072 44.6128H61.9208V60.9785H57.7072V44.6128ZM35.7278 62L34.4597 60.437L33.9842 60.7231L33.4779 60.9477L32.9407 61.1062L32.3992 61.2647L31.228 61.4584L29.9952 61.5201L29.0133 61.4584L28.0931 61.3307L27.2037 61.1414L26.3804 60.8552L25.5878 60.4722L24.8614 60.0539L24.1657 59.5432L23.5317 58.9708L22.9593 58.3632L22.453 57.6631L22.0479 56.9278L21.6648 56.1309L21.3787 55.2679L21.1585 54.3741L21.0308 53.4495L21 52.4941L21.0616 51.5651L21.1893 50.7065L21.4447 49.8743L21.7617 49.0774L22.1404 48.3465L22.6159 47.6465L23.153 47.008L23.7562 46.4004L24.3903 45.8897L25.0859 45.4142L25.8432 45.0267L26.6049 44.6745L27.4283 44.4191L28.2516 44.2298L29.1058 44.1021L29.9952 44.0713L30.911 44.1021L31.8312 44.2298L32.6854 44.4191L33.5395 44.6745L34.2968 45.0267L35.0585 45.4406L35.7542 45.9161L36.3882 46.4269L36.9606 47.0345L37.4669 47.7037L37.9116 48.439L38.2903 49.2051L38.5765 50.0328L38.7966 50.9266L38.9243 51.8513L38.9903 52.8111L38.9243 53.6388L38.8274 54.405L38.6689 55.1402L38.4488 55.8711L38.1318 56.5756L37.7839 57.2757L37.3745 57.9449L36.899 58.5833L39.6244 61.3924L35.7278 62ZM33.8257 55.2679L34.1427 54.6955L34.3981 54.0879L34.5258 53.4803L34.5874 52.8463L34.5566 52.3972L34.495 51.9525L34.3673 51.5078L34.2088 51.094L33.7993 50.297L33.2577 49.597L32.9099 49.2755L32.5621 49.0202L32.1834 48.7648L31.8048 48.5711L31.3953 48.4126L30.9506 48.2849L30.4751 48.2188L29.9996 48.188L29.5549 48.2188L29.0794 48.2849L28.6347 48.3773L28.2252 48.5359L27.4327 48.9497L26.7678 49.4913L26.4508 49.8127L26.1999 50.1297L25.9797 50.4819L25.7596 50.865L25.6011 51.2481L25.5086 51.6619L25.447 52.0758L25.4029 52.4941L25.4337 53.0356L25.4954 53.5156L25.5878 53.9911L25.7464 54.4358L25.9665 54.8849L26.1866 55.2987L26.4376 55.651L26.7546 56.0032L27.0716 56.3202L27.4195 56.5756L27.7981 56.831L28.212 57.0247L28.6215 57.1832L29.0662 57.2801L29.5417 57.3769H29.9864L30.6512 57.3461L31.2852 57.1832L28.6875 54.5679L32.6766 54.0571L33.8257 55.2679ZM55.0434 44.6128V53.7973L54.9818 55.3604L54.9157 56.1265L54.788 56.8926L54.5679 57.5927L54.2817 58.2927L53.8722 58.962L53.3351 59.5696L52.7979 60.0495L52.1947 60.4326L51.5299 60.754L50.8342 60.9785L50.1385 61.1678L49.3768 61.2955L48.6504 61.3924H47.2238L46.4973 61.2955L45.7664 61.1678L45.04 60.9785L44.3443 60.754L43.7103 60.4326L43.1071 60.0495L42.5655 59.5696L42.0284 58.962L41.6189 58.2927L41.3019 57.5927L41.1126 56.8926L40.954 56.1265L40.8924 55.3604L40.8616 53.7973V44.6128H45.0752V53.225L45.1368 54.8188L45.2645 55.5541L45.4803 56.2234L45.6388 56.5448L45.8281 56.831L46.3344 57.2757L46.6514 57.4342L47.0301 57.5618L47.4748 57.6235L47.9503 57.6587L48.4258 57.6235L48.8397 57.5618L49.2183 57.4342L49.5353 57.2757L49.8215 57.0511L50.0417 56.8266L50.231 56.5404L50.3895 56.2234L50.6097 55.5541L50.7373 54.8188L50.799 54.0219V44.6128H55.0434Z" fill="white"/>
<path fill-rule="evenodd" clip-rule="evenodd" d="M98.7424 52.5427L98.6807 52.9522L98.5883 53.3044L98.4254 53.617L98.1788 53.9032L97.9234 54.1233L97.58 54.3171L97.2322 54.4095L96.8535 54.4756L96.444 54.4095L96.1006 54.3171L95.7528 54.1233L95.471 53.9032L95.2508 53.617L95.0923 53.3044L94.9647 52.9522L94.9338 52.5427L94.9647 52.1596L95.0923 51.8118L95.2508 51.4948L95.471 51.2086L95.7528 50.9532L96.1006 50.7947L96.444 50.6714L96.8535 50.6406L97.2322 50.6714L97.5756 50.7947L97.9234 50.9532L98.1788 51.2086L98.4254 51.4948L98.5883 51.8118L98.6807 52.1596L98.7424 52.5427Z" fill="#EC008C"/>
<path fill-rule="evenodd" clip-rule="evenodd" d="M70.2555 38.7443L82.5661 25.1393L79.1494 22L66.8389 35.6359L70.2555 38.7443ZM81.9057 38.9336L94.2162 25.2978L90.7996 22.1893L78.489 35.7944L81.9057 38.9336ZM93.6174 38.916L105.928 25.311L102.511 22.2025L90.2008 35.8076L93.6174 38.916Z" fill="#EC008C"/>
</svg>
