<svg width="136" height="53" viewBox="0 0 136 53" fill="none" xmlns="http://www.w3.org/2000/svg">
<path d="M14.936 52.0002V44.5722H19.076V45.6162H16.136V47.4522H19.076V48.4962H16.136V52.0002H14.936ZM21.3083 52.0002V44.5722H22.5083V50.9082H25.2083V52.0002H21.3083ZM33.4828 49.7802C33.1708 50.5402 32.6668 51.1282 31.9708 51.5442C31.2828 51.9602 30.5548 52.1682 29.7868 52.1682C29.7228 52.1682 29.6588 52.1642 29.5948 52.1562C29.5388 52.1562 29.4788 52.1522 29.4148 52.1442C29.1588 52.1202 28.9068 52.0722 28.6588 52.0002C28.4108 51.9362 28.1708 51.8442 27.9388 51.7242C27.2828 51.3722 26.7668 50.8842 26.3908 50.2602C26.0228 49.6362 25.8388 48.9722 25.8388 48.2682C25.8388 48.1562 25.8428 48.0442 25.8508 47.9322C25.8668 47.8202 25.8868 47.7082 25.9108 47.5962C25.9428 47.4042 25.9948 47.2122 26.0668 47.0202C26.1388 46.8202 26.2188 46.6322 26.3068 46.4562C26.6668 45.8002 27.1628 45.2962 27.7948 44.9442C28.4348 44.5922 29.1068 44.4162 29.8108 44.4162C29.9308 44.4162 30.0548 44.4242 30.1828 44.4402C30.3108 44.4482 30.4348 44.4642 30.5548 44.4882C30.8108 44.5362 31.0628 44.6082 31.3108 44.7042C31.5588 44.7922 31.7908 44.9082 32.0068 45.0522C32.5588 45.4122 32.9868 45.8922 33.2908 46.4922C33.6028 47.0842 33.7588 47.7002 33.7588 48.3402C33.7588 48.5882 33.7348 48.8322 33.6868 49.0722C33.6388 49.3122 33.5708 49.5482 33.4828 49.7802ZM29.8108 51.0642C30.5708 51.0642 31.2108 50.7882 31.7308 50.2362C32.2508 49.6842 32.5108 49.0402 32.5108 48.3042C32.5108 47.5522 32.2428 46.9002 31.7068 46.3482C31.1788 45.7962 30.5388 45.5202 29.7868 45.5202H29.5348C28.8308 45.5922 28.2468 45.9122 27.7828 46.4802C27.3188 47.0402 27.0868 47.6602 27.0868 48.3402C27.0868 48.3802 27.0868 48.4202 27.0868 48.4602C27.0948 48.5002 27.1028 48.5402 27.1108 48.5802C27.1108 48.6042 27.1108 48.6282 27.1108 48.6522C27.1188 48.6682 27.1228 48.6882 27.1228 48.7122C27.1308 48.7362 27.1348 48.7602 27.1348 48.7842C27.1428 48.8002 27.1468 48.8162 27.1468 48.8322C27.2748 49.4642 27.5908 49.9962 28.0948 50.4282C28.5988 50.8522 29.1708 51.0642 29.8108 51.0642ZM42.3877 49.7802C42.0757 50.5402 41.5717 51.1282 40.8757 51.5442C40.1877 51.9602 39.4597 52.1682 38.6917 52.1682C38.6277 52.1682 38.5637 52.1642 38.4997 52.1562C38.4437 52.1562 38.3837 52.1522 38.3197 52.1442C38.0637 52.1202 37.8117 52.0722 37.5637 52.0002C37.3157 51.9362 37.0757 51.8442 36.8437 51.7242C36.1877 51.3722 35.6717 50.8842 35.2957 50.2602C34.9277 49.6362 34.7437 48.9722 34.7437 48.2682C34.7437 48.1562 34.7477 48.0442 34.7557 47.9322C34.7717 47.8202 34.7917 47.7082 34.8157 47.5962C34.8477 47.4042 34.8997 47.2122 34.9717 47.0202C35.0437 46.8202 35.1237 46.6322 35.2117 46.4562C35.5717 45.8002 36.0677 45.2962 36.6997 44.9442C37.3397 44.5922 38.0117 44.4162 38.7157 44.4162C38.8357 44.4162 38.9597 44.4242 39.0877 44.4402C39.2157 44.4482 39.3397 44.4642 39.4597 44.4882C39.7157 44.5362 39.9677 44.6082 40.2157 44.7042C40.4637 44.7922 40.6957 44.9082 40.9117 45.0522C41.4637 45.4122 41.8917 45.8922 42.1957 46.4922C42.5077 47.0842 42.6637 47.7002 42.6637 48.3402C42.6637 48.5882 42.6397 48.8322 42.5917 49.0722C42.5437 49.3122 42.4757 49.5482 42.3877 49.7802ZM38.7157 51.0642C39.4757 51.0642 40.1157 50.7882 40.6357 50.2362C41.1557 49.6842 41.4157 49.0402 41.4157 48.3042C41.4157 47.5522 41.1477 46.9002 40.6117 46.3482C40.0837 45.7962 39.4437 45.5202 38.6917 45.5202H38.4397C37.7357 45.5922 37.1517 45.9122 36.6877 46.4802C36.2237 47.0402 35.9917 47.6602 35.9917 48.3402C35.9917 48.3802 35.9917 48.4202 35.9917 48.4602C35.9997 48.5002 36.0077 48.5402 36.0157 48.5802C36.0157 48.6042 36.0157 48.6282 36.0157 48.6522C36.0237 48.6682 36.0277 48.6882 36.0277 48.7122C36.0357 48.7362 36.0397 48.7602 36.0397 48.7842C36.0477 48.8002 36.0517 48.8162 36.0517 48.8322C36.1797 49.4642 36.4957 49.9962 36.9997 50.4282C37.5037 50.8522 38.0757 51.0642 38.7157 51.0642ZM45.1605 48.6762V52.0002H44.0325V44.5722H45.7125C45.7845 44.5722 45.8565 44.5722 45.9285 44.5722C46.0005 44.5722 46.0765 44.5762 46.1565 44.5842C46.4365 44.5922 46.7085 44.6282 46.9725 44.6922C47.2445 44.7562 47.4845 44.8922 47.6925 45.1002C47.8685 45.2762 48.0045 45.4802 48.1005 45.7122C48.1965 45.9362 48.2525 46.1642 48.2685 46.3962C48.2765 46.4282 48.2805 46.4642 48.2805 46.5042C48.2805 46.5362 48.2805 46.5722 48.2805 46.6122C48.2805 47.2202 48.1405 47.6842 47.8605 48.0042C47.5805 48.3162 47.1565 48.5202 46.5885 48.6162L49.1325 52.0002H47.7765L45.3045 48.6762H45.1605ZM45.2445 45.6162V47.7402C45.2765 47.7402 45.3045 47.7442 45.3285 47.7522C45.3605 47.7522 45.3925 47.7522 45.4245 47.7522C45.4485 47.7522 45.4725 47.7562 45.4965 47.7642C45.5285 47.7642 45.5605 47.7642 45.5925 47.7642C45.6325 47.7642 45.6685 47.7642 45.7005 47.7642C45.7405 47.7642 45.7805 47.7642 45.8205 47.7642C46.1165 47.7482 46.3885 47.6802 46.6365 47.5602C46.8925 47.4402 47.0245 47.1882 47.0325 46.8042V46.7082C47.0325 46.2042 46.8725 45.8962 46.5525 45.7842C46.2325 45.6722 45.8725 45.6162 45.4725 45.6162H45.2445ZM54.9788 52.0002V44.5722H56.7548C56.9068 44.5722 57.0588 44.5722 57.2108 44.5722C57.3628 44.5722 57.5188 44.5762 57.6788 44.5842C58.1348 44.6082 58.5828 44.6802 59.0228 44.8002C59.4708 44.9202 59.8668 45.1482 60.2108 45.4842C60.5628 45.8202 60.8268 46.2282 61.0028 46.7082C61.1868 47.1802 61.2828 47.6722 61.2908 48.1842C61.2908 48.2002 61.2908 48.2162 61.2908 48.2322C61.2908 48.2482 61.2908 48.2642 61.2908 48.2802C61.2908 48.8082 61.1988 49.3202 61.0148 49.8162C60.8388 50.3122 60.5708 50.7362 60.2108 51.0882C59.8028 51.4802 59.3428 51.7282 58.8308 51.8322C58.3188 51.9362 57.7948 51.9922 57.2588 52.0002C57.1948 52.0002 57.1308 52.0002 57.0668 52.0002C57.0108 52.0002 56.9508 52.0002 56.8868 52.0002H54.9788ZM56.1908 50.9082C56.2708 50.9082 56.3508 50.9122 56.4308 50.9202C56.5108 50.9202 56.5908 50.9202 56.6708 50.9202C56.7428 50.9202 56.8188 50.9242 56.8988 50.9322C56.9788 50.9322 57.0588 50.9322 57.1388 50.9322C57.2028 50.9322 57.2668 50.9322 57.3308 50.9322C57.3948 50.9322 57.4548 50.9282 57.5108 50.9202C57.6388 50.9122 57.7668 50.9002 57.8948 50.8842C58.0228 50.8682 58.1428 50.8522 58.2548 50.8362C58.8228 50.7482 59.2548 50.4642 59.5508 49.9842C59.8468 49.5042 60.0108 48.9842 60.0428 48.4242C60.0428 48.4002 60.0428 48.3762 60.0428 48.3522C60.0428 48.3202 60.0428 48.2922 60.0428 48.2682C60.0428 48.2362 60.0428 48.2042 60.0428 48.1722C60.0428 48.1402 60.0428 48.1082 60.0428 48.0762C60.0188 47.6682 59.9188 47.2762 59.7428 46.9002C59.5748 46.5242 59.3308 46.2282 59.0108 46.0122C58.8348 45.8922 58.6348 45.8082 58.4108 45.7602C58.1948 45.7042 57.9748 45.6682 57.7508 45.6522C57.6868 45.6442 57.6188 45.6402 57.5468 45.6402C57.4748 45.6402 57.4068 45.6402 57.3428 45.6402C57.3108 45.6402 57.2788 45.6402 57.2468 45.6402C57.2148 45.6402 57.1788 45.6402 57.1388 45.6402C57.0748 45.6402 57.0108 45.6442 56.9468 45.6522C56.8828 45.6522 56.8188 45.6522 56.7548 45.6522C56.6508 45.6522 56.5508 45.6562 56.4548 45.6642C56.3668 45.6642 56.2788 45.6642 56.1908 45.6642V50.9082ZM62.6763 52.0002V44.5722H66.8163V45.6162H63.8763V47.4522H66.8163V48.5202H63.8763V50.9082H66.8163V52.0002H62.6763ZM68.6116 50.5002L69.5956 50.0562C69.6676 50.3042 69.7836 50.5162 69.9436 50.6922C70.1116 50.8682 70.3316 50.9802 70.6036 51.0282C70.6196 51.0282 70.6356 51.0322 70.6516 51.0402C70.6676 51.0402 70.6836 51.0442 70.6996 51.0522C70.7476 51.0602 70.7956 51.0682 70.8436 51.0762C70.8996 51.0842 70.9556 51.0882 71.0116 51.0882C71.0356 51.0882 71.0636 51.0882 71.0956 51.0882C71.1276 51.0882 71.1556 51.0842 71.1796 51.0762C71.3396 51.0602 71.4916 51.0162 71.6356 50.9442C71.7876 50.8722 71.9076 50.7722 71.9956 50.6442C72.0356 50.5722 72.0716 50.4962 72.1036 50.4162C72.1356 50.3282 72.1556 50.2402 72.1636 50.1522C72.1716 50.1282 72.1756 50.1082 72.1756 50.0922C72.1756 50.0682 72.1756 50.0442 72.1756 50.0202C72.1756 49.9802 72.1716 49.9442 72.1636 49.9122C72.1636 49.8722 72.1596 49.8322 72.1516 49.7922C72.1436 49.7282 72.1316 49.6682 72.1156 49.6122C72.0996 49.5562 72.0756 49.5042 72.0436 49.4562C71.9636 49.3202 71.8396 49.2002 71.6716 49.0962C71.5036 48.9922 71.3236 48.9002 71.1316 48.8202C71.0036 48.7562 70.8756 48.7002 70.7476 48.6522C70.6196 48.5962 70.5076 48.5402 70.4116 48.4842C70.4036 48.4842 70.3956 48.4842 70.3876 48.4842C70.3796 48.4762 70.3716 48.4682 70.3636 48.4602C70.0196 48.2762 69.6956 48.0522 69.3916 47.7882C69.0956 47.5242 68.9156 47.1842 68.8516 46.7682C68.8516 46.7442 68.8476 46.7202 68.8396 46.6962C68.8396 46.6642 68.8396 46.6362 68.8396 46.6122C68.8316 46.5882 68.8236 46.5642 68.8156 46.5402C68.8156 46.5082 68.8156 46.4802 68.8156 46.4562C68.8156 46.4082 68.8156 46.3602 68.8156 46.3122C68.8236 46.2562 68.8316 46.2002 68.8396 46.1442C68.8716 45.9522 68.9276 45.7642 69.0076 45.5802C69.0956 45.3962 69.2036 45.2362 69.3316 45.1002C69.5156 44.8922 69.7516 44.7282 70.0396 44.6082C70.3276 44.4882 70.6236 44.4162 70.9276 44.3922C70.9516 44.3922 70.9756 44.3922 70.9996 44.3922C71.0316 44.3922 71.0596 44.3922 71.0836 44.3922C71.1156 44.3922 71.1476 44.3922 71.1796 44.3922C71.2116 44.3922 71.2436 44.3962 71.2756 44.4042C71.6756 44.4282 72.0556 44.5442 72.4156 44.7522C72.7756 44.9522 73.0316 45.2482 73.1836 45.6402L72.2596 46.1322C72.1236 45.9242 71.9636 45.7602 71.7796 45.6402C71.6036 45.5122 71.3916 45.4482 71.1436 45.4482H71.1076C70.8276 45.4562 70.5916 45.5522 70.3996 45.7362C70.2076 45.9202 70.0996 46.1242 70.0756 46.3482C70.0756 46.3642 70.0756 46.3802 70.0756 46.3962C70.0756 46.4042 70.0756 46.4122 70.0756 46.4202C70.0756 46.4442 70.0756 46.4722 70.0756 46.5042C70.0836 46.5362 70.0916 46.5642 70.0996 46.5882C70.1156 46.6922 70.1556 46.7922 70.2196 46.8882C70.2836 46.9842 70.3636 47.0682 70.4596 47.1402C70.6196 47.2842 70.7956 47.4082 70.9876 47.5122C71.1876 47.6082 71.3876 47.6962 71.5876 47.7762C71.6036 47.7842 71.6156 47.7922 71.6236 47.8002C71.6316 47.8002 71.6436 47.8042 71.6596 47.8122C71.8116 47.8762 71.9596 47.9442 72.1036 48.0162C72.2556 48.0802 72.3956 48.1562 72.5236 48.2442C72.7796 48.4202 72.9796 48.6362 73.1236 48.8922C73.2756 49.1482 73.3676 49.4122 73.3996 49.6842C73.4076 49.7322 73.4116 49.7802 73.4116 49.8282C73.4196 49.8762 73.4236 49.9242 73.4236 49.9722C73.4236 50.4042 73.2996 50.8122 73.0516 51.1962C72.8116 51.5802 72.4676 51.8522 72.0196 52.0122C71.9396 52.0362 71.8556 52.0602 71.7676 52.0842C71.6796 52.1082 71.5916 52.1242 71.5036 52.1322C71.4076 52.1482 71.3156 52.1602 71.2276 52.1682C71.1396 52.1762 71.0556 52.1802 70.9756 52.1802C70.4476 52.1802 69.9596 52.0402 69.5116 51.7602C69.0636 51.4802 68.7636 51.0602 68.6116 50.5002ZM76.0767 52.0002V44.5722H77.2887V52.0002H76.0767ZM83.8815 48.2082H86.8215V48.7722C86.8215 49.3562 86.7375 49.9082 86.5695 50.4282C86.4015 50.9402 86.0255 51.3602 85.4415 51.6882C85.2175 51.8162 84.9735 51.9162 84.7095 51.9882C84.4535 52.0602 84.1935 52.1122 83.9295 52.1442C83.8415 52.1522 83.7535 52.1562 83.6655 52.1562C83.5775 52.1642 83.4895 52.1682 83.4015 52.1682C83.3695 52.1682 83.3375 52.1682 83.3055 52.1682C83.2735 52.1682 83.2415 52.1682 83.2095 52.1682C82.5855 52.1362 81.9855 51.9842 81.4095 51.7122C80.8415 51.4402 80.4015 51.0442 80.0895 50.5242C79.9215 50.2522 79.7855 49.9682 79.6815 49.6722C79.5775 49.3682 79.5095 49.0642 79.4775 48.7602C79.4695 48.6802 79.4615 48.6042 79.4535 48.5322C79.4535 48.4522 79.4535 48.3762 79.4535 48.3042C79.4535 47.6002 79.6295 46.9322 79.9815 46.3002C80.3335 45.6602 80.8495 45.1762 81.5295 44.8482C81.7055 44.7522 81.8895 44.6762 82.0815 44.6202C82.2815 44.5562 82.4775 44.5082 82.6695 44.4762C82.7815 44.4522 82.8935 44.4362 83.0055 44.4282C83.1175 44.4202 83.2295 44.4162 83.3415 44.4162C83.8775 44.4162 84.3975 44.5242 84.9015 44.7402C85.4135 44.9562 85.8535 45.2762 86.2215 45.7002L85.3455 46.3602C85.0735 46.0802 84.7775 45.8682 84.4575 45.7242C84.1455 45.5802 83.8135 45.5082 83.4615 45.5082C83.3575 45.5082 83.2495 45.5162 83.1375 45.5322C83.0255 45.5402 82.9095 45.5562 82.7895 45.5802C82.7655 45.5802 82.7375 45.5842 82.7055 45.5922C82.6815 45.6002 82.6535 45.6082 82.6215 45.6162C81.9895 45.8002 81.5095 46.1442 81.1815 46.6482C80.8615 47.1442 80.7015 47.6882 80.7015 48.2802C80.7015 48.3202 80.7015 48.3602 80.7015 48.4002C80.7095 48.4402 80.7135 48.4802 80.7135 48.5202C80.7135 48.5362 80.7135 48.5562 80.7135 48.5802C80.7215 48.5962 80.7255 48.6122 80.7255 48.6282C80.7335 48.6682 80.7375 48.7082 80.7375 48.7482C80.7455 48.7802 80.7495 48.8122 80.7495 48.8442C80.8695 49.5482 81.1895 50.1042 81.7095 50.5122C82.2295 50.9202 82.8175 51.1242 83.4735 51.1242C83.5375 51.1242 83.5975 51.1202 83.6535 51.1122C83.7175 51.1042 83.7815 51.0962 83.8455 51.0882C83.8695 51.0882 83.8935 51.0842 83.9175 51.0762C83.9495 51.0682 83.9775 51.0642 84.0015 51.0642C84.0415 51.0562 84.0775 51.0522 84.1095 51.0522C84.1495 51.0442 84.1855 51.0362 84.2175 51.0282C84.6895 50.9322 85.0495 50.7322 85.2975 50.4282C85.5535 50.1162 85.6815 49.7322 85.6815 49.2762V49.2162H83.8815V48.2082ZM88.3788 52.0002V44.2842L93.0828 48.8082C93.1228 48.8482 93.1588 48.8882 93.1908 48.9282C93.2228 48.9602 93.2588 48.9962 93.2988 49.0362C93.3468 49.0842 93.3908 49.1362 93.4308 49.1922C93.4788 49.2402 93.5268 49.2922 93.5748 49.3482C93.6308 49.4042 93.6828 49.4642 93.7308 49.5282C93.7868 49.5922 93.8428 49.6562 93.8988 49.7202V44.5722H95.0028V52.2762L90.2028 47.6682C90.0668 47.5402 89.9388 47.4082 89.8188 47.2722C89.7068 47.1282 89.5948 46.9802 89.4828 46.8282V52.0002H88.3788ZM97.2654 52.0002V44.5722H101.405V45.6162H98.4654V47.4522H101.405V48.5202H98.4654V50.9082H101.405V52.0002H97.2654ZM105.061 48.6762V52.0002H103.933V44.5722H105.613C105.685 44.5722 105.757 44.5722 105.829 44.5722C105.901 44.5722 105.977 44.5762 106.057 44.5842C106.337 44.5922 106.609 44.6282 106.873 44.6922C107.145 44.7562 107.385 44.8922 107.593 45.1002C107.769 45.2762 107.905 45.4802 108.001 45.7122C108.097 45.9362 108.153 46.1642 108.169 46.3962C108.177 46.4282 108.181 46.4642 108.181 46.5042C108.181 46.5362 108.181 46.5722 108.181 46.6122C108.181 47.2202 108.041 47.6842 107.761 48.0042C107.481 48.3162 107.057 48.5202 106.489 48.6162L109.033 52.0002H107.677L105.205 48.6762H105.061ZM105.145 45.6162V47.7402C105.177 47.7402 105.205 47.7442 105.229 47.7522C105.261 47.7522 105.293 47.7522 105.325 47.7522C105.349 47.7522 105.373 47.7562 105.397 47.7642C105.429 47.7642 105.461 47.7642 105.493 47.7642C105.533 47.7642 105.569 47.7642 105.601 47.7642C105.641 47.7642 105.681 47.7642 105.721 47.7642C106.017 47.7482 106.289 47.6802 106.537 47.5602C106.793 47.4402 106.925 47.1882 106.933 46.8042V46.7082C106.933 46.2042 106.773 45.8962 106.453 45.7842C106.133 45.6722 105.773 45.6162 105.373 45.6162H105.145ZM109.865 50.5002L110.849 50.0562C110.921 50.3042 111.037 50.5162 111.197 50.6922C111.365 50.8682 111.585 50.9802 111.857 51.0282C111.873 51.0282 111.889 51.0322 111.905 51.0402C111.921 51.0402 111.937 51.0442 111.953 51.0522C112.001 51.0602 112.049 51.0682 112.097 51.0762C112.153 51.0842 112.209 51.0882 112.265 51.0882C112.289 51.0882 112.317 51.0882 112.349 51.0882C112.381 51.0882 112.409 51.0842 112.433 51.0762C112.593 51.0602 112.745 51.0162 112.889 50.9442C113.041 50.8722 113.161 50.7722 113.249 50.6442C113.289 50.5722 113.325 50.4962 113.357 50.4162C113.389 50.3282 113.409 50.2402 113.417 50.1522C113.425 50.1282 113.429 50.1082 113.429 50.0922C113.429 50.0682 113.429 50.0442 113.429 50.0202C113.429 49.9802 113.425 49.9442 113.417 49.9122C113.417 49.8722 113.413 49.8322 113.405 49.7922C113.397 49.7282 113.385 49.6682 113.369 49.6122C113.353 49.5562 113.329 49.5042 113.297 49.4562C113.217 49.3202 113.093 49.2002 112.925 49.0962C112.757 48.9922 112.577 48.9002 112.385 48.8202C112.257 48.7562 112.129 48.7002 112.001 48.6522C111.873 48.5962 111.761 48.5402 111.665 48.4842C111.657 48.4842 111.649 48.4842 111.641 48.4842C111.633 48.4762 111.625 48.4682 111.617 48.4602C111.273 48.2762 110.949 48.0522 110.645 47.7882C110.349 47.5242 110.169 47.1842 110.105 46.7682C110.105 46.7442 110.101 46.7202 110.093 46.6962C110.093 46.6642 110.093 46.6362 110.093 46.6122C110.085 46.5882 110.077 46.5642 110.069 46.5402C110.069 46.5082 110.069 46.4802 110.069 46.4562C110.069 46.4082 110.069 46.3602 110.069 46.3122C110.077 46.2562 110.085 46.2002 110.093 46.1442C110.125 45.9522 110.181 45.7642 110.261 45.5802C110.349 45.3962 110.457 45.2362 110.585 45.1002C110.769 44.8922 111.005 44.7282 111.293 44.6082C111.581 44.4882 111.877 44.4162 112.181 44.3922C112.205 44.3922 112.229 44.3922 112.253 44.3922C112.285 44.3922 112.313 44.3922 112.337 44.3922C112.369 44.3922 112.401 44.3922 112.433 44.3922C112.465 44.3922 112.497 44.3962 112.529 44.4042C112.929 44.4282 113.309 44.5442 113.669 44.7522C114.029 44.9522 114.285 45.2482 114.437 45.6402L113.513 46.1322C113.377 45.9242 113.217 45.7602 113.033 45.6402C112.857 45.5122 112.645 45.4482 112.397 45.4482H112.361C112.081 45.4562 111.845 45.5522 111.653 45.7362C111.461 45.9202 111.353 46.1242 111.329 46.3482C111.329 46.3642 111.329 46.3802 111.329 46.3962C111.329 46.4042 111.329 46.4122 111.329 46.4202C111.329 46.4442 111.329 46.4722 111.329 46.5042C111.337 46.5362 111.345 46.5642 111.353 46.5882C111.369 46.6922 111.409 46.7922 111.473 46.8882C111.537 46.9842 111.617 47.0682 111.713 47.1402C111.873 47.2842 112.049 47.4082 112.241 47.5122C112.441 47.6082 112.641 47.6962 112.841 47.7762C112.857 47.7842 112.869 47.7922 112.877 47.8002C112.885 47.8002 112.897 47.8042 112.913 47.8122C113.065 47.8762 113.213 47.9442 113.357 48.0162C113.509 48.0802 113.649 48.1562 113.777 48.2442C114.033 48.4202 114.233 48.6362 114.377 48.8922C114.529 49.1482 114.621 49.4122 114.653 49.6842C114.661 49.7322 114.665 49.7802 114.665 49.8282C114.673 49.8762 114.677 49.9242 114.677 49.9722C114.677 50.4042 114.553 50.8122 114.305 51.1962C114.065 51.5802 113.721 51.8522 113.273 52.0122C113.193 52.0362 113.109 52.0602 113.021 52.0842C112.933 52.1082 112.845 52.1242 112.757 52.1322C112.661 52.1482 112.569 52.1602 112.481 52.1682C112.393 52.1762 112.309 52.1802 112.229 52.1802C111.701 52.1802 111.213 52.0402 110.765 51.7602C110.317 51.4802 110.017 51.0602 109.865 50.5002Z" fill="white"/>
<path d="M133.953 26.9935C133.387 26.9804 132.936 26.7974 132.602 26.4444C132.267 26.0915 132.072 25.7059 132.019 25.2876C132.01 25.2484 132.004 25.2092 132 25.1699C132 25.1307 132 25.0915 132 25.0523C132 25.0479 132 25.0414 132 25.0327C132.004 25.024 132.006 25.0153 132.006 25.0065C132.006 25.0022 132.006 24.9956 132.006 24.9869C132.01 24.9782 132.012 24.9717 132.012 24.9673C132.012 24.4444 132.201 23.9869 132.577 23.5948C132.953 23.1983 133.445 23 134.053 23C134.57 23 135.022 23.1874 135.411 23.5621C135.804 23.9325 136 24.4009 136 24.9673C136 25.5033 135.814 25.976 135.442 26.3856C135.074 26.7952 134.594 27 134.003 27C133.999 27 133.995 27 133.991 27C133.987 27 133.982 27 133.978 27C133.978 27 133.978 26.9978 133.978 26.9935C133.97 26.9935 133.964 26.9935 133.96 26.9935C133.956 26.9935 133.953 26.9935 133.953 26.9935ZM135.64 24.9281V24.8627C135.64 24.8061 135.636 24.7495 135.628 24.6928C135.62 24.6362 135.607 24.5795 135.591 24.5229C135.512 24.2222 135.336 23.9477 135.064 23.6993C134.795 23.451 134.454 23.3268 134.04 23.3268H133.972C133.505 23.3442 133.145 23.4815 132.893 23.7386C132.641 23.9913 132.475 24.2702 132.397 24.5752C132.376 24.6536 132.36 24.732 132.347 24.8105C132.339 24.8889 132.335 24.9651 132.335 25.0392C132.347 25.4357 132.453 25.756 132.651 26C132.854 26.2397 133.075 26.4161 133.315 26.5294C133.43 26.5817 133.542 26.6209 133.65 26.6471C133.761 26.6732 133.863 26.6863 133.953 26.6863C134.417 26.6863 134.789 26.549 135.07 26.2745C135.355 26 135.533 25.6972 135.603 25.366C135.616 25.3137 135.624 25.2614 135.628 25.2092C135.636 25.1569 135.64 25.1046 135.64 25.0523V24.9281ZM134.171 23.9216C134.414 23.9216 134.594 23.9673 134.71 24.0588C134.83 24.146 134.89 24.2898 134.89 24.4902C134.89 24.6863 134.844 24.8301 134.753 24.9216C134.667 25.0131 134.514 25.0806 134.295 25.1242L134.89 26.1307H134.493L133.953 25.1242H133.519V26.1307H133.191V23.9216H134.171ZM134.133 24.1961H133.519V24.8105H134.171C134.307 24.8105 134.408 24.7843 134.474 24.732C134.541 24.6754 134.574 24.6057 134.574 24.5229C134.574 24.4357 134.539 24.3595 134.468 24.2941C134.402 24.2288 134.29 24.1961 134.133 24.1961Z" fill="white"/>
<path fill-rule="evenodd" clip-rule="evenodd" d="M117.783 22.6128H124.242L125.51 22.6745L126.113 22.7714L126.65 22.899L127.187 23.0884L127.663 23.3129L128.107 23.5683L128.517 23.8853L128.896 24.2375L129.213 24.6206L129.499 25.0653L129.719 25.5452L129.908 26.0868L130.036 26.6591L130.128 27.2976L130.159 27.9668L130.128 28.6713L130.067 29.3405L129.939 29.9173L129.781 30.4941L129.56 30.9696L129.305 31.4451L129.023 31.8282L128.675 32.2112L128.262 32.5326L127.852 32.788L127.377 33.0434L126.87 33.2019L126.298 33.3604L125.695 33.4572L125.061 33.5189L124.396 33.5497H122.023V38.9785H117.778V22.6128H117.783ZM122.027 30.1066H122.723L123.863 30.0758L124.369 30.0142L124.81 29.8513L125.188 29.6267L125.378 29.4682L125.505 29.2789L125.695 28.7681L125.756 28.0989L125.695 27.4296L125.505 26.9233L125.224 26.5403L124.871 26.2849L124.396 26.1572L123.889 26.0603L122.718 26.0295H122.023V30.1066H122.027ZM110.179 26.188V28.931H114.929V32.537H110.179V35.3769H115.185V38.9829H105.939V22.6128H115.185V26.1836H110.179V26.188ZM100.933 38.9785H96.6882V26.188H93.2055V22.6173H104.415V26.188H100.933V38.9785ZM90.1014 26.8264L89.4674 26.3773L88.8026 26.0251L88.0761 25.8006L87.693 25.7345H87.3144L86.6803 25.8006L86.108 26.0559L85.857 26.2497L85.6633 26.505L85.5356 26.7604L85.4739 27.0774L85.5356 27.4296L85.6633 27.7202L85.8834 27.9404L86.1388 28.1341L86.7728 28.4511L87.3716 28.6449L88.4503 28.9971L89.2737 29.2525L90.031 29.6047L90.6958 29.9877L91.299 30.4677L91.5544 30.7539L91.7745 31.0753L91.9639 31.3967L92.1224 31.7489L92.2809 32.132L92.3733 32.5458L92.435 32.9905V34.0737L92.3733 34.6769L92.2456 35.2845L92.0915 35.8568L91.867 36.3984L91.5808 36.94L91.1977 37.4155L90.753 37.8646L90.2599 38.2432L89.7536 38.5646L89.1812 38.82L88.6132 39.0446L88.01 39.2031L87.376 39.2999L86.7772 39.3968H86.1432L85.3815 39.366L84.6198 39.2691L83.8933 39.1106L83.1668 38.9213L82.4359 38.6263L81.7403 38.3049L81.0754 37.957L80.4414 37.5432L82.2466 34.1001L83.0699 34.7693L83.5146 35.0599L83.9902 35.3153L84.4657 35.509L84.9676 35.6675L85.4739 35.7644L86.0111 35.7952H86.3589L86.7376 35.6983L87.0854 35.5707L87.4024 35.4121L87.6578 35.1876L87.8779 34.9014L88.0056 34.5492L88.0364 34.1661L87.9748 33.7522L87.7811 33.4L87.4641 33.1138L87.1162 32.8585L86.7024 32.6691L86.2577 32.5106L85.4651 32.2905L84.5141 31.9999L83.6555 31.6829L82.9291 31.3306L82.295 30.8859L82.0088 30.6306L81.7579 30.3092L81.5686 29.9921L81.3792 29.6091L81.2515 29.1952L81.1591 28.7505L81.093 28.2398V27.0466L81.1899 26.4698L81.3176 25.9282L81.5069 25.3867L81.7315 24.9068L81.9824 24.4621L82.2994 24.0482L82.6517 23.6651L83.0611 23.3129L83.475 23.0267L83.9505 22.7714L84.426 22.5468L84.9632 22.3883L85.5048 22.2606L86.108 22.1946L86.6803 22.1638L87.3144 22.1946L87.9792 22.2606L89.3089 22.516L90.6077 22.9607L91.211 23.216L91.7789 23.5022L90.1014 26.8264ZM67.2679 22.6128H72.5249L66.0615 30.3312L73.0929 38.9785H67.6113L62.1693 31.8634H62.1385V38.9785H57.894V22.6128H62.1385V29.3449H62.1693L67.2679 22.6128ZM55.2963 28.0989L54.9485 27.685L54.5698 27.302L54.1251 27.0158L53.6496 26.7604L53.1741 26.5359L52.6678 26.4082L52.1306 26.3113L51.5935 26.2805L51.1179 26.3113L50.6732 26.3729L50.2285 26.5006L49.8191 26.6283L49.4404 26.822L49.0926 27.0466L48.7756 27.302L48.4586 27.5882L48.2032 27.9404L47.9522 28.2618L47.7629 28.6449L47.5736 29.0587L47.3534 29.8865L47.2874 30.3664L47.2566 30.8111L47.3534 31.7665L47.5736 32.5943L47.7629 33.0082L47.9522 33.3604L48.2032 33.7126L48.4894 34.034L48.7756 34.2894L49.1234 34.5448L49.4712 34.7649L49.8499 34.9586L50.2638 35.0863L50.7041 35.1788L51.1796 35.2448L51.6551 35.2757L52.1614 35.2448L52.6986 35.1524L53.1741 35.0247L53.6496 34.8001L54.1251 34.5448L54.5698 34.2542L54.9485 33.9019L55.2963 33.5497V38.6263L54.3145 38.9477L53.3942 39.1678L52.5093 39.3263L51.5582 39.3924L50.7349 39.3616L49.9115 39.2339L49.0882 39.0446L48.2957 38.7892L47.5384 38.437L46.8119 38.0231L46.1162 37.5432L45.4822 37.0016L44.8482 36.3632L44.311 35.6939L43.8663 34.963L43.4877 34.1969L43.2323 33.4L43.0122 32.5723L42.9153 31.7093L42.8536 30.8155L42.9153 29.9877L43.0122 29.16L43.2015 28.3631L43.4877 27.5661L43.8355 26.8308L44.2494 26.1264L44.7249 25.4571L45.2621 24.8187L45.8961 24.2419L46.5917 23.7004L47.3182 23.2557L48.1107 22.8726L48.9033 22.582L49.7266 22.3619L50.5808 22.199L51.4349 22.1682L52.4476 22.2298L53.4295 22.3883L54.3497 22.6437L55.3007 22.9959V28.0989H55.2963ZM36.7072 22.6128H40.9208V38.9785H36.7072V22.6128ZM14.7278 40L13.4597 38.437L12.9842 38.7231L12.4779 38.9477L11.9407 39.1062L11.3992 39.2647L10.228 39.4584L8.99517 39.5201L8.01332 39.4584L7.09311 39.3307L6.20372 39.1414L5.38037 38.8552L4.58785 38.4722L3.86136 38.0539L3.1657 37.5432L2.53168 36.9708L1.9593 36.3632L1.45296 35.6631L1.0479 34.9278L0.664841 34.1309L0.378651 33.2679L0.158505 32.3741L0.0308205 31.4495L0 30.4941L0.0616409 29.5651L0.189326 28.7065L0.444695 27.8743L0.761706 27.0774L1.14036 26.3465L1.61587 25.6465L2.15303 25.008L2.75623 24.4004L3.39025 23.8897L4.08591 23.4142L4.84322 23.0267L5.60492 22.6745L6.42827 22.4191L7.25161 22.2298L8.10578 22.1021L8.99517 22.0713L9.91098 22.1021L10.8312 22.2298L11.6854 22.4191L12.5395 22.6745L13.2968 23.0267L14.0585 23.4406L14.7542 23.9161L15.3882 24.4269L15.9606 25.0345L16.4669 25.7037L16.9116 26.439L17.2903 27.2051L17.5765 28.0328L17.7966 28.9266L17.9243 29.8513L17.9903 30.8111L17.9243 31.6388L17.8274 32.405L17.6689 33.1402L17.4488 33.8711L17.1318 34.5756L16.7839 35.2757L16.3745 35.9449L15.899 36.5833L18.6244 39.3924L14.7278 40ZM12.8257 33.2679L13.1427 32.6955L13.3981 32.0879L13.5258 31.4803L13.5874 30.8463L13.5566 30.3972L13.495 29.9525L13.3673 29.5078L13.2088 29.094L12.7993 28.297L12.2577 27.597L11.9099 27.2755L11.5621 27.0202L11.1834 26.7648L10.8048 26.5711L10.3953 26.4126L9.95061 26.2849L9.47509 26.2188L8.99957 26.188L8.55488 26.2188L8.07936 26.2849L7.63467 26.3773L7.2252 26.5359L6.43267 26.9497L5.76783 27.4913L5.45082 27.8127L5.19985 28.1297L4.97971 28.4819L4.75956 28.865L4.60105 29.2481L4.50859 29.6619L4.44695 30.0758L4.40292 30.4941L4.43374 31.0356L4.49538 31.5156L4.58785 31.9911L4.74635 32.4358L4.9665 32.8849L5.18664 33.2987L5.43761 33.651L5.75462 34.0032L6.07163 34.3202L6.41946 34.5756L6.79811 34.831L7.21199 35.0247L7.62146 35.1832L8.06615 35.2801L8.54167 35.3769H8.98637L9.65121 35.3461L10.2852 35.1832L7.6875 32.5679L11.6766 32.0571L12.8257 33.2679ZM34.0434 22.6128V31.7973L33.9818 33.3604L33.9157 34.1265L33.788 34.8926L33.5679 35.5927L33.2817 36.2927L32.8722 36.962L32.3351 37.5696L31.7979 38.0495L31.1947 38.4326L30.5299 38.754L29.8342 38.9785L29.1385 39.1678L28.3768 39.2955L27.6504 39.3924H26.2238L25.4973 39.2955L24.7664 39.1678L24.04 38.9785L23.3443 38.754L22.7103 38.4326L22.1071 38.0495L21.5655 37.5696L21.0284 36.962L20.6189 36.2927L20.3019 35.5927L20.1126 34.8926L19.954 34.1265L19.8924 33.3604L19.8616 31.7973V22.6128H24.0752V31.225L24.1368 32.8188L24.2645 33.5541L24.4803 34.2234L24.6388 34.5448L24.8281 34.831L25.3344 35.2757L25.6514 35.4342L26.0301 35.5618L26.4748 35.6235L26.9503 35.6587L27.4258 35.6235L27.8397 35.5618L28.2183 35.4342L28.5353 35.2757L28.8215 35.0511L29.0417 34.8266L29.231 34.5404L29.3895 34.2234L29.6097 33.5541L29.7373 32.8188L29.799 32.0219V22.6128H34.0434Z" fill="white"/>
<path fill-rule="evenodd" clip-rule="evenodd" d="M77.7424 30.5427L77.6807 30.9522L77.5883 31.3044L77.4254 31.617L77.1788 31.9032L76.9234 32.1233L76.58 32.3171L76.2322 32.4095L75.8535 32.4756L75.444 32.4095L75.1006 32.3171L74.7528 32.1233L74.471 31.9032L74.2508 31.617L74.0923 31.3044L73.9647 30.9522L73.9338 30.5427L73.9647 30.1596L74.0923 29.8118L74.2508 29.4948L74.471 29.2086L74.7528 28.9532L75.1006 28.7947L75.444 28.6714L75.8535 28.6406L76.2322 28.6714L76.5756 28.7947L76.9234 28.9532L77.1788 29.2086L77.4254 29.4948L77.5883 29.8118L77.6807 30.1596L77.7424 30.5427Z" fill="#EC008C"/>
<path fill-rule="evenodd" clip-rule="evenodd" d="M49.2555 16.7443L61.5661 3.13928L58.1494 0L45.8389 13.6359L49.2555 16.7443ZM60.9057 16.9336L73.2162 3.29779L69.7996 0.189326L57.489 13.7944L60.9057 16.9336ZM72.6174 16.916L84.928 3.311L81.5114 0.202534L69.2008 13.8076L72.6174 16.916Z" fill="#EC008C"/>
</svg>
