<svg width="25" height="27" viewBox="0 0 25 27" fill="none" xmlns="http://www.w3.org/2000/svg">
<rect width="25" height="26.25" fill="#004EA2"/>
<path d="M15.5463 20.8758C12.0664 23.5828 7.035 23.3388 3.84328 20.1436C0.385574 16.6822 0.385574 11.0575 3.84328 7.59605C7.30098 4.13465 12.9197 4.13465 16.3774 7.59605C19.5692 10.7912 19.8241 15.828 17.1089 19.3116L22.1876 24.0607C22.6198 24.4934 22.6198 25.1923 22.1876 25.625C21.7554 26.0577 21.0572 26.0577 20.625 25.625L15.5463 20.8758ZM14.8037 18.5682C17.397 15.9722 17.397 11.7564 14.8037 9.14924C12.2105 6.5421 7.99917 6.55319 5.39481 9.14924C2.79045 11.7453 2.80153 15.9611 5.39481 18.5682C7.98809 21.1754 12.2105 21.1754 14.8037 18.5682Z" fill="white"/>
</svg>
