<svg width="17" height="16" viewBox="0 0 17 16" fill="none" xmlns="http://www.w3.org/2000/svg">
<path d="M11.1447 11.2716C8.67409 13.1935 5.10188 13.0202 2.83581 10.7517C0.380902 8.29418 0.380902 4.30069 2.83581 1.84315C5.29072 -0.614384 9.27995 -0.614384 11.7349 1.84315C14.0009 4.11164 14.1819 7.68767 12.2542 10.161L16.7391 14.6507C17.046 14.9579 17.046 15.4541 16.7391 15.7613C16.4322 16.0685 15.9365 16.0685 15.6297 15.7613L11.1447 11.2716ZM10.6176 9.63322C12.4587 7.79007 12.4587 4.79692 10.6176 2.94589C8.77637 1.09486 5.78642 1.10274 3.93737 2.94589C2.08832 4.78904 2.09619 7.78219 3.93737 9.63322C5.77855 11.4842 8.77637 11.4842 10.6176 9.63322Z" fill="#333333"/>
</svg>
