<svg width="25" height="27" viewBox="0 0 25 27" fill="none" xmlns="http://www.w3.org/2000/svg">
<rect width="25" height="26.25" fill="#004EA2"/>
<path d="M16.5942 26.2496C16.3706 26.2496 16.2028 26.2496 15.9792 26.1943C12.3454 25.4751 9.60606 23.1518 7.64938 21.2157C5.63681 19.2243 3.23289 16.5137 2.56203 12.8075C2.33841 11.6458 2.72975 10.4842 3.56832 9.65441L4.07147 9.15656C4.63052 8.54807 5.41319 8.27148 6.25176 8.27148C7.09033 8.27148 7.873 8.60339 8.43205 9.15656L9.21472 9.931C9.77377 10.4842 10.0533 11.3139 9.99739 12.0884C9.88558 12.9181 9.43834 13.5819 8.71158 14.0245C8.54386 14.1351 8.48796 14.2457 8.43205 14.4117C8.43205 14.5776 8.43205 14.6883 8.54386 14.8542L8.76748 15.1308C10.221 16.9563 11.6186 18.2839 13.4076 19.7221L13.4635 19.7775C13.6871 19.9434 13.9107 19.9987 14.1903 19.9987C14.4139 19.9434 14.6375 19.7775 14.8052 19.5562C15.1966 18.9477 15.8115 18.5052 16.5383 18.4498C17.265 18.3392 17.9918 18.6158 18.4949 19.1137L19.5571 20.1647C20.7311 21.3263 20.787 23.3178 19.5571 24.4794L18.7186 25.3092C18.1595 25.9177 17.3768 26.2496 16.5942 26.2496ZM6.25176 9.87568C5.86043 9.87568 5.525 10.0416 5.24547 10.3182L4.74233 10.8161C4.29509 11.2586 4.12737 11.8671 4.23918 12.4756C4.85414 15.7393 7.03443 18.2286 8.87929 19.9987C10.6683 21.7689 13.184 23.9262 16.3706 24.5347C16.8178 24.6454 17.3209 24.4794 17.6564 24.1475L18.4949 23.3178C19.054 22.7646 19.054 21.8795 18.4949 21.3263L17.3209 20.3306C17.1532 20.1647 16.9855 20.1094 16.7619 20.1094C16.5383 20.1094 16.3706 20.2753 16.2587 20.4413C15.8674 21.1051 15.2525 21.5476 14.5257 21.6582C13.7989 21.7689 13.0722 21.6029 12.4572 21.1051L12.4013 21.0498C10.5005 19.5562 8.9911 18.0626 7.48167 16.1818L7.25805 15.9053C6.86671 15.4074 6.699 14.7436 6.81081 14.1351C6.92262 13.5266 7.31395 12.9734 7.873 12.6415C8.15253 12.4756 8.32024 12.199 8.32024 11.9224C8.37615 11.6458 8.26434 11.3139 8.04072 11.0927L7.25805 10.3182C6.97853 10.0416 6.58719 9.87568 6.25176 9.87568Z" fill="white"/>
<path d="M19.5572 16.3489C19.11 16.3489 18.7186 15.9617 18.7186 15.5191C18.7186 12.4763 16.2029 9.98683 13.1281 9.98683C12.6809 9.98683 12.2896 9.59957 12.2896 9.15699C12.2896 8.71441 12.6809 8.32715 13.1281 8.32715C17.1533 8.32715 20.3958 11.5359 20.3958 15.5191C20.3958 15.9617 20.0044 16.3489 19.5572 16.3489Z" fill="white"/>
<path d="M22.9115 16.3489C22.4643 16.3489 22.0729 15.9617 22.0729 15.5191C22.0729 10.6507 18.0478 6.66749 13.1281 6.66749C12.6809 6.66749 12.2896 6.28023 12.2896 5.83765C12.2896 5.39507 12.6809 5.00781 13.1281 5.00781C18.9981 5.00781 23.7501 9.71023 23.7501 15.5191C23.7501 15.9617 23.3587 16.3489 22.9115 16.3489Z" fill="white"/>
</svg>
